# Generated by tools/generate_turbine_assets.py
mtllib waterturbine:models/block/turbine.mtl
vt 0.25 0.25
vt 0.75 0.25
vt 0.75 0.75
vt 0.25 0.75
usemtl white
v 0.500000 0.500000 0.780000
v 0.586933 0.523294 0.780000
v 0.590000 0.500000 0.780000
vn 0.000000 0.000000 -1.000000
f 1/1/1 2/2/1 3/3/1
usemtl white
v 0.500000 0.500000 0.780000
v 0.577942 0.545000 0.780000
v 0.586933 0.523294 0.780000
vn 0.000000 0.000000 -1.000000
f 4/1/2 5/2/2 6/3/2
usemtl white
v 0.500000 0.500000 0.780000
v 0.563640 0.563640 0.780000
v 0.577942 0.545000 0.780000
vn 0.000000 0.000000 -1.000000
f 7/1/3 8/2/3 9/3/3
usemtl white
v 0.500000 0.500000 0.780000
v 0.545000 0.577942 0.780000
v 0.563640 0.563640 0.780000
vn 0.000000 0.000000 -1.000000
f 10/1/4 11/2/4 12/3/4
usemtl white
v 0.500000 0.500000 0.780000
v 0.523294 0.586933 0.780000
v 0.545000 0.577942 0.780000
vn 0.000000 0.000000 -1.000000
f 13/1/5 14/2/5 15/3/5
usemtl white
v 0.500000 0.500000 0.780000
v 0.500000 0.590000 0.780000
v 0.523294 0.586933 0.780000
vn 0.000000 0.000000 -1.000000
f 16/1/6 17/2/6 18/3/6
usemtl white
v 0.500000 0.500000 0.780000
v 0.476706 0.586933 0.780000
v 0.500000 0.590000 0.780000
vn 0.000000 0.000000 -1.000000
f 19/1/7 20/2/7 21/3/7
usemtl white
v 0.500000 0.500000 0.780000
v 0.455000 0.577942 0.780000
v 0.476706 0.586933 0.780000
vn 0.000000 0.000000 -1.000000
f 22/1/8 23/2/8 24/3/8
usemtl white
v 0.500000 0.500000 0.780000
v 0.436360 0.563640 0.780000
v 0.455000 0.577942 0.780000
vn 0.000000 0.000000 -1.000000
f 25/1/9 26/2/9 27/3/9
usemtl white
v 0.500000 0.500000 0.780000
v 0.422058 0.545000 0.780000
v 0.436360 0.563640 0.780000
vn 0.000000 0.000000 -1.000000
f 28/1/10 29/2/10 30/3/10
usemtl white
v 0.500000 0.500000 0.780000
v 0.413067 0.523294 0.780000
v 0.422058 0.545000 0.780000
vn 0.000000 0.000000 -1.000000
f 31/1/11 32/2/11 33/3/11
usemtl white
v 0.500000 0.500000 0.780000
v 0.410000 0.500000 0.780000
v 0.413067 0.523294 0.780000
vn 0.000000 0.000000 -1.000000
f 34/1/12 35/2/12 36/3/12
usemtl white
v 0.500000 0.500000 0.780000
v 0.413067 0.476706 0.780000
v 0.410000 0.500000 0.780000
vn -0.000000 0.000000 -1.000000
f 37/1/13 38/2/13 39/3/13
usemtl white
v 0.500000 0.500000 0.780000
v 0.422058 0.455000 0.780000
v 0.413067 0.476706 0.780000
vn 0.000000 0.000000 -1.000000
f 40/1/14 41/2/14 42/3/14
usemtl white
v 0.500000 0.500000 0.780000
v 0.436360 0.436360 0.780000
v 0.422058 0.455000 0.780000
vn 0.000000 0.000000 -1.000000
f 43/1/15 44/2/15 45/3/15
usemtl white
v 0.500000 0.500000 0.780000
v 0.455000 0.422058 0.780000
v 0.436360 0.436360 0.780000
vn 0.000000 0.000000 -1.000000
f 46/1/16 47/2/16 48/3/16
usemtl white
v 0.500000 0.500000 0.780000
v 0.476706 0.413067 0.780000
v 0.455000 0.422058 0.780000
vn 0.000000 0.000000 -1.000000
f 49/1/17 50/2/17 51/3/17
usemtl white
v 0.500000 0.500000 0.780000
v 0.500000 0.410000 0.780000
v 0.476706 0.413067 0.780000
vn 0.000000 -0.000000 -1.000000
f 52/1/18 53/2/18 54/3/18
usemtl white
v 0.500000 0.500000 0.780000
v 0.523294 0.413067 0.780000
v 0.500000 0.410000 0.780000
vn 0.000000 0.000000 -1.000000
f 55/1/19 56/2/19 57/3/19
usemtl white
v 0.500000 0.500000 0.780000
v 0.545000 0.422058 0.780000
v 0.523294 0.413067 0.780000
vn 0.000000 0.000000 -1.000000
f 58/1/20 59/2/20 60/3/20
usemtl white
v 0.500000 0.500000 0.780000
v 0.563640 0.436360 0.780000
v 0.545000 0.422058 0.780000
vn 0.000000 0.000000 -1.000000
f 61/1/21 62/2/21 63/3/21
usemtl white
v 0.500000 0.500000 0.780000
v 0.577942 0.455000 0.780000
v 0.563640 0.436360 0.780000
vn 0.000000 0.000000 -1.000000
f 64/1/22 65/2/22 66/3/22
usemtl white
v 0.500000 0.500000 0.780000
v 0.586933 0.476706 0.780000
v 0.577942 0.455000 0.780000
vn 0.000000 0.000000 -1.000000
f 67/1/23 68/2/23 69/3/23
usemtl white
v 0.500000 0.500000 0.780000
v 0.590000 0.500000 0.780000
v 0.586933 0.476706 0.780000
vn 0.000000 0.000000 -1.000000
f 70/1/24 71/2/24 72/3/24
usemtl white
v 0.590000 0.500000 0.780000
v 0.586933 0.523294 0.780000
v 0.596593 0.525882 0.870000
v 0.600000 0.500000 0.870000
vn 0.985483 0.129741 -0.109498
f 73/1/25 74/2/25 75/3/25 76/4/25
usemtl white
v 0.586933 0.523294 0.780000
v 0.577942 0.545000 0.780000
v 0.586603 0.550000 0.870000
v 0.596593 0.525882 0.870000
vn 0.918324 0.380382 -0.109498
f 77/1/26 78/2/26 79/3/26 80/4/26
usemtl white
v 0.577942 0.545000 0.780000
v 0.563640 0.563640 0.780000
v 0.570711 0.570711 0.870000
v 0.586603 0.550000 0.870000
vn 0.788583 0.605101 -0.109498
f 81/1/27 82/2/27 83/3/27 84/4/27
usemtl white
v 0.563640 0.563640 0.780000
v 0.545000 0.577942 0.780000
v 0.550000 0.586603 0.870000
v 0.570711 0.570711 0.870000
vn 0.605101 0.788583 -0.109498
f 85/1/28 86/2/28 87/3/28 88/4/28
usemtl white
v 0.545000 0.577942 0.780000
v 0.523294 0.586933 0.780000
v 0.525882 0.596593 0.870000
v 0.550000 0.586603 0.870000
vn 0.380382 0.918324 -0.109498
f 89/1/29 90/2/29 91/3/29 92/4/29
usemtl white
v 0.523294 0.586933 0.780000
v 0.500000 0.590000 0.780000
v 0.500000 0.600000 0.870000
v 0.525882 0.596593 0.870000
vn 0.129741 0.985483 -0.109498
f 93/1/30 94/2/30 95/3/30 96/4/30
usemtl white
v 0.500000 0.590000 0.780000
v 0.476706 0.586933 0.780000
v 0.474118 0.596593 0.870000
v 0.500000 0.600000 0.870000
vn -0.129741 0.985483 -0.109498
f 97/1/31 98/2/31 99/3/31 100/4/31
usemtl white
v 0.476706 0.586933 0.780000
v 0.455000 0.577942 0.780000
v 0.450000 0.586603 0.870000
v 0.474118 0.596593 0.870000
vn -0.380382 0.918324 -0.109498
f 101/1/32 102/2/32 103/3/32 104/4/32
usemtl white
v 0.455000 0.577942 0.780000
v 0.436360 0.563640 0.780000
v 0.429289 0.570711 0.870000
v 0.450000 0.586603 0.870000
vn -0.605101 0.788583 -0.109498
f 105/1/33 106/2/33 107/3/33 108/4/33
usemtl white
v 0.436360 0.563640 0.780000
v 0.422058 0.545000 0.780000
v 0.413397 0.550000 0.870000
v 0.429289 0.570711 0.870000
vn -0.788583 0.605101 -0.109498
f 109/1/34 110/2/34 111/3/34 112/4/34
usemtl white
v 0.422058 0.545000 0.780000
v 0.413067 0.523294 0.780000
v 0.403407 0.525882 0.870000
v 0.413397 0.550000 0.870000
vn -0.918324 0.380382 -0.109498
f 113/1/35 114/2/35 115/3/35 116/4/35
usemtl white
v 0.413067 0.523294 0.780000
v 0.410000 0.500000 0.780000
v 0.400000 0.500000 0.870000
v 0.403407 0.525882 0.870000
vn -0.985483 0.129741 -0.109498
f 117/1/36 118/2/36 119/3/36 120/4/36
usemtl white
v 0.410000 0.500000 0.780000
v 0.413067 0.476706 0.780000
v 0.403407 0.474118 0.870000
v 0.400000 0.500000 0.870000
vn -0.985483 -0.129741 -0.109498
f 121/1/37 122/2/37 123/3/37 124/4/37
usemtl white
v 0.413067 0.476706 0.780000
v 0.422058 0.455000 0.780000
v 0.413397 0.450000 0.870000
v 0.403407 0.474118 0.870000
vn -0.918324 -0.380382 -0.109498
f 125/1/38 126/2/38 127/3/38 128/4/38
usemtl white
v 0.422058 0.455000 0.780000
v 0.436360 0.436360 0.780000
v 0.429289 0.429289 0.870000
v 0.413397 0.450000 0.870000
vn -0.788583 -0.605101 -0.109498
f 129/1/39 130/2/39 131/3/39 132/4/39
usemtl white
v 0.436360 0.436360 0.780000
v 0.455000 0.422058 0.780000
v 0.450000 0.413397 0.870000
v 0.429289 0.429289 0.870000
vn -0.605101 -0.788583 -0.109498
f 133/1/40 134/2/40 135/3/40 136/4/40
usemtl white
v 0.455000 0.422058 0.780000
v 0.476706 0.413067 0.780000
v 0.474118 0.403407 0.870000
v 0.450000 0.413397 0.870000
vn -0.380382 -0.918324 -0.109498
f 137/1/41 138/2/41 139/3/41 140/4/41
usemtl white
v 0.476706 0.413067 0.780000
v 0.500000 0.410000 0.780000
v 0.500000 0.400000 0.870000
v 0.474118 0.403407 0.870000
vn -0.129741 -0.985483 -0.109498
f 141/1/42 142/2/42 143/3/42 144/4/42
usemtl white
v 0.500000 0.410000 0.780000
v 0.523294 0.413067 0.780000
v 0.525882 0.403407 0.870000
v 0.500000 0.400000 0.870000
vn 0.129741 -0.985483 -0.109498
f 145/1/43 146/2/43 147/3/43 148/4/43
usemtl white
v 0.523294 0.413067 0.780000
v 0.545000 0.422058 0.780000
v 0.550000 0.413397 0.870000
v 0.525882 0.403407 0.870000
vn 0.380382 -0.918324 -0.109498
f 149/1/44 150/2/44 151/3/44 152/4/44
usemtl white
v 0.545000 0.422058 0.780000
v 0.563640 0.436360 0.780000
v 0.570711 0.429289 0.870000
v 0.550000 0.413397 0.870000
vn 0.605101 -0.788583 -0.109498
f 153/1/45 154/2/45 155/3/45 156/4/45
usemtl white
v 0.563640 0.436360 0.780000
v 0.577942 0.455000 0.780000
v 0.586603 0.450000 0.870000
v 0.570711 0.429289 0.870000
vn 0.788583 -0.605101 -0.109498
f 157/1/46 158/2/46 159/3/46 160/4/46
usemtl white
v 0.577942 0.455000 0.780000
v 0.586933 0.476706 0.780000
v 0.596593 0.474118 0.870000
v 0.586603 0.450000 0.870000
vn 0.918324 -0.380382 -0.109498
f 161/1/47 162/2/47 163/3/47 164/4/47
usemtl white
v 0.586933 0.476706 0.780000
v 0.590000 0.500000 0.780000
v 0.600000 0.500000 0.870000
v 0.596593 0.474118 0.870000
vn 0.985483 -0.129741 -0.109498
f 165/1/48 166/2/48 167/3/48 168/4/48
usemtl white
v 0.600000 0.500000 0.870000
v 0.596593 0.525882 0.870000
v 0.553126 0.514235 0.940000
v 0.555000 0.500000 0.940000
vn 0.836067 0.110070 0.537472
f 169/1/49 170/2/49 171/3/49 172/4/49
usemtl white
v 0.596593 0.525882 0.870000
v 0.586603 0.550000 0.870000
v 0.547631 0.527500 0.940000
v 0.553126 0.514235 0.940000
vn 0.779091 0.322710 0.537472
f 173/1/50 174/2/50 175/3/50 176/4/50
usemtl white
v 0.586603 0.550000 0.870000
v 0.570711 0.570711 0.870000
v 0.538891 0.538891 0.940000
v 0.547631 0.527500 0.940000
vn 0.669020 0.513357 0.537472
f 177/1/51 178/2/51 179/3/51 180/4/51
usemtl white
v 0.570711 0.570711 0.870000
v 0.550000 0.586603 0.870000
v 0.527500 0.547631 0.940000
v 0.538891 0.538891 0.940000
vn 0.513357 0.669020 0.537472
f 181/1/52 182/2/52 183/3/52 184/4/52
usemtl white
v 0.550000 0.586603 0.870000
v 0.525882 0.596593 0.870000
v 0.514235 0.553126 0.940000
v 0.527500 0.547631 0.940000
vn 0.322710 0.779091 0.537472
f 185/1/53 186/2/53 187/3/53 188/4/53
usemtl white
v 0.525882 0.596593 0.870000
v 0.500000 0.600000 0.870000
v 0.500000 0.555000 0.940000
v 0.514235 0.553126 0.940000
vn 0.110070 0.836067 0.537472
f 189/1/54 190/2/54 191/3/54 192/4/54
usemtl white
v 0.500000 0.600000 0.870000
v 0.474118 0.596593 0.870000
v 0.485765 0.553126 0.940000
v 0.500000 0.555000 0.940000
vn -0.110070 0.836067 0.537472
f 193/1/55 194/2/55 195/3/55 196/4/55
usemtl white
v 0.474118 0.596593 0.870000
v 0.450000 0.586603 0.870000
v 0.472500 0.547631 0.940000
v 0.485765 0.553126 0.940000
vn -0.322710 0.779091 0.537472
f 197/1/56 198/2/56 199/3/56 200/4/56
usemtl white
v 0.450000 0.586603 0.870000
v 0.429289 0.570711 0.870000
v 0.461109 0.538891 0.940000
v 0.472500 0.547631 0.940000
vn -0.513357 0.669020 0.537472
f 201/1/57 202/2/57 203/3/57 204/4/57
usemtl white
v 0.429289 0.570711 0.870000
v 0.413397 0.550000 0.870000
v 0.452369 0.527500 0.940000
v 0.461109 0.538891 0.940000
vn -0.669020 0.513357 0.537472
f 205/1/58 206/2/58 207/3/58 208/4/58
usemtl white
v 0.413397 0.550000 0.870000
v 0.403407 0.525882 0.870000
v 0.446874 0.514235 0.940000
v 0.452369 0.527500 0.940000
vn -0.779091 0.322710 0.537472
f 209/1/59 210/2/59 211/3/59 212/4/59
usemtl white
v 0.403407 0.525882 0.870000
v 0.400000 0.500000 0.870000
v 0.445000 0.500000 0.940000
v 0.446874 0.514235 0.940000
vn -0.836067 0.110070 0.537472
f 213/1/60 214/2/60 215/3/60 216/4/60
usemtl white
v 0.400000 0.500000 0.870000
v 0.403407 0.474118 0.870000
v 0.446874 0.485765 0.940000
v 0.445000 0.500000 0.940000
vn -0.836067 -0.110070 0.537472
f 217/1/61 218/2/61 219/3/61 220/4/61
usemtl white
v 0.403407 0.474118 0.870000
v 0.413397 0.450000 0.870000
v 0.452369 0.472500 0.940000
v 0.446874 0.485765 0.940000
vn -0.779091 -0.322710 0.537472
f 221/1/62 222/2/62 223/3/62 224/4/62
usemtl white
v 0.413397 0.450000 0.870000
v 0.429289 0.429289 0.870000
v 0.461109 0.461109 0.940000
v 0.452369 0.472500 0.940000
vn -0.669020 -0.513357 0.537472
f 225/1/63 226/2/63 227/3/63 228/4/63
usemtl white
v 0.429289 0.429289 0.870000
v 0.450000 0.413397 0.870000
v 0.472500 0.452369 0.940000
v 0.461109 0.461109 0.940000
vn -0.513357 -0.669020 0.537472
f 229/1/64 230/2/64 231/3/64 232/4/64
usemtl white
v 0.450000 0.413397 0.870000
v 0.474118 0.403407 0.870000
v 0.485765 0.446874 0.940000
v 0.472500 0.452369 0.940000
vn -0.322710 -0.779091 0.537472
f 233/1/65 234/2/65 235/3/65 236/4/65
usemtl white
v 0.474118 0.403407 0.870000
v 0.500000 0.400000 0.870000
v 0.500000 0.445000 0.940000
v 0.485765 0.446874 0.940000
vn -0.110070 -0.836067 0.537472
f 237/1/66 238/2/66 239/3/66 240/4/66
usemtl white
v 0.500000 0.400000 0.870000
v 0.525882 0.403407 0.870000
v 0.514235 0.446874 0.940000
v 0.500000 0.445000 0.940000
vn 0.110070 -0.836067 0.537472
f 241/1/67 242/2/67 243/3/67 244/4/67
usemtl white
v 0.525882 0.403407 0.870000
v 0.550000 0.413397 0.870000
v 0.527500 0.452369 0.940000
v 0.514235 0.446874 0.940000
vn 0.322710 -0.779091 0.537472
f 245/1/68 246/2/68 247/3/68 248/4/68
usemtl white
v 0.550000 0.413397 0.870000
v 0.570711 0.429289 0.870000
v 0.538891 0.461109 0.940000
v 0.527500 0.452369 0.940000
vn 0.513357 -0.669020 0.537472
f 249/1/69 250/2/69 251/3/69 252/4/69
usemtl white
v 0.570711 0.429289 0.870000
v 0.586603 0.450000 0.870000
v 0.547631 0.472500 0.940000
v 0.538891 0.461109 0.940000
vn 0.669020 -0.513357 0.537472
f 253/1/70 254/2/70 255/3/70 256/4/70
usemtl white
v 0.586603 0.450000 0.870000
v 0.596593 0.474118 0.870000
v 0.553126 0.485765 0.940000
v 0.547631 0.472500 0.940000
vn 0.779091 -0.322710 0.537472
f 257/1/71 258/2/71 259/3/71 260/4/71
usemtl white
v 0.596593 0.474118 0.870000
v 0.600000 0.500000 0.870000
v 0.555000 0.500000 0.940000
v 0.553126 0.485765 0.940000
vn 0.836067 -0.110070 0.537472
f 261/1/72 262/2/72 263/3/72 264/4/72
usemtl white
v 0.555000 0.500000 0.940000
v 0.553126 0.514235 0.940000
v 0.500000 0.500000 0.950000
vn 0.178836 0.023544 0.983597
f 265/1/73 266/2/73 267/3/73
usemtl white
v 0.553126 0.514235 0.940000
v 0.547631 0.527500 0.940000
v 0.500000 0.500000 0.950000
vn 0.166648 0.069028 0.983597
f 268/1/74 269/2/74 270/3/74
usemtl white
v 0.547631 0.527500 0.940000
v 0.538891 0.538891 0.940000
v 0.500000 0.500000 0.950000
vn 0.143104 0.109808 0.983597
f 271/1/75 272/2/75 273/3/75
usemtl white
v 0.538891 0.538891 0.940000
v 0.527500 0.547631 0.940000
v 0.500000 0.500000 0.950000
vn 0.109808 0.143104 0.983597
f 274/1/76 275/2/76 276/3/76
usemtl white
v 0.527500 0.547631 0.940000
v 0.514235 0.553126 0.940000
v 0.500000 0.500000 0.950000
vn 0.069028 0.166648 0.983597
f 277/1/77 278/2/77 279/3/77
usemtl white
v 0.514235 0.553126 0.940000
v 0.500000 0.555000 0.940000
v 0.500000 0.500000 0.950000
vn 0.023544 0.178836 0.983597
f 280/1/78 281/2/78 282/3/78
usemtl white
v 0.500000 0.555000 0.940000
v 0.485765 0.553126 0.940000
v 0.500000 0.500000 0.950000
vn -0.023544 0.178836 0.983597
f 283/1/79 284/2/79 285/3/79
usemtl white
v 0.485765 0.553126 0.940000
v 0.472500 0.547631 0.940000
v 0.500000 0.500000 0.950000
vn -0.069028 0.166648 0.983597
f 286/1/80 287/2/80 288/3/80
usemtl white
v 0.472500 0.547631 0.940000
v 0.461109 0.538891 0.940000
v 0.500000 0.500000 0.950000
vn -0.109808 0.143104 0.983597
f 289/1/81 290/2/81 291/3/81
usemtl white
v 0.461109 0.538891 0.940000
v 0.452369 0.527500 0.940000
v 0.500000 0.500000 0.950000
vn -0.143104 0.109808 0.983597
f 292/1/82 293/2/82 294/3/82
usemtl white
v 0.452369 0.527500 0.940000
v 0.446874 0.514235 0.940000
v 0.500000 0.500000 0.950000
vn -0.166648 0.069028 0.983597
f 295/1/83 296/2/83 297/3/83
usemtl white
v 0.446874 0.514235 0.940000
v 0.445000 0.500000 0.940000
v 0.500000 0.500000 0.950000
vn -0.178836 0.023544 0.983597
f 298/1/84 299/2/84 300/3/84
usemtl white
v 0.445000 0.500000 0.940000
v 0.446874 0.485765 0.940000
v 0.500000 0.500000 0.950000
vn -0.178836 -0.023544 0.983597
f 301/1/85 302/2/85 303/3/85
usemtl white
v 0.446874 0.485765 0.940000
v 0.452369 0.472500 0.940000
v 0.500000 0.500000 0.950000
vn -0.166648 -0.069028 0.983597
f 304/1/86 305/2/86 306/3/86
usemtl white
v 0.452369 0.472500 0.940000
v 0.461109 0.461109 0.940000
v 0.500000 0.500000 0.950000
vn -0.143104 -0.109808 0.983597
f 307/1/87 308/2/87 309/3/87
usemtl white
v 0.461109 0.461109 0.940000
v 0.472500 0.452369 0.940000
v 0.500000 0.500000 0.950000
vn -0.109808 -0.143104 0.983597
f 310/1/88 311/2/88 312/3/88
usemtl white
v 0.472500 0.452369 0.940000
v 0.485765 0.446874 0.940000
v 0.500000 0.500000 0.950000
vn -0.069028 -0.166648 0.983597
f 313/1/89 314/2/89 315/3/89
usemtl white
v 0.485765 0.446874 0.940000
v 0.500000 0.445000 0.940000
v 0.500000 0.500000 0.950000
vn -0.023544 -0.178836 0.983597
f 316/1/90 317/2/90 318/3/90
usemtl white
v 0.500000 0.445000 0.940000
v 0.514235 0.446874 0.940000
v 0.500000 0.500000 0.950000
vn 0.023544 -0.178836 0.983597
f 319/1/91 320/2/91 321/3/91
usemtl white
v 0.514235 0.446874 0.940000
v 0.527500 0.452369 0.940000
v 0.500000 0.500000 0.950000
vn 0.069028 -0.166648 0.983597
f 322/1/92 323/2/92 324/3/92
usemtl white
v 0.527500 0.452369 0.940000
v 0.538891 0.461109 0.940000
v 0.500000 0.500000 0.950000
vn 0.109808 -0.143104 0.983597
f 325/1/93 326/2/93 327/3/93
usemtl white
v 0.538891 0.461109 0.940000
v 0.547631 0.472500 0.940000
v 0.500000 0.500000 0.950000
vn 0.143104 -0.109808 0.983597
f 328/1/94 329/2/94 330/3/94
usemtl white
v 0.547631 0.472500 0.940000
v 0.553126 0.485765 0.940000
v 0.500000 0.500000 0.950000
vn 0.166648 -0.069028 0.983597
f 331/1/95 332/2/95 333/3/95
usemtl white
v 0.553126 0.485765 0.940000
v 0.555000 0.500000 0.940000
v 0.500000 0.500000 0.950000
vn 0.178836 -0.023544 0.983597
f 334/1/96 335/2/96 336/3/96
usemtl black
v 0.601000 0.500000 0.810000
v 0.597559 0.526141 0.810000
v 0.594446 0.525307 0.817778
v 0.597778 0.500000 0.817778
vn 0.917120 0.120741 0.379884
f 337/1/97 338/2/97 339/3/97 340/4/97
usemtl black
v 0.597559 0.526141 0.810000
v 0.587469 0.550500 0.810000
v 0.584678 0.548889 0.817778
v 0.594446 0.525307 0.817778
vn 0.854620 0.353995 0.379884
f 341/1/98 342/2/98 343/3/98 344/4/98
usemtl black
v 0.587469 0.550500 0.810000
v 0.571418 0.571418 0.810000
v 0.569140 0.569140 0.817778
v 0.584678 0.548889 0.817778
vn 0.733879 0.563125 0.379884
f 345/1/99 346/2/99 347/3/99 348/4/99
usemtl black
v 0.571418 0.571418 0.810000
v 0.550500 0.587469 0.810000
v 0.548889 0.584678 0.817778
v 0.569140 0.569140 0.817778
vn 0.563125 0.733879 0.379884
f 349/1/100 350/2/100 351/3/100 352/4/100
usemtl black
v 0.550500 0.587469 0.810000
v 0.526141 0.597559 0.810000
v 0.525307 0.594446 0.817778
v 0.548889 0.584678 0.817778
vn 0.353995 0.854620 0.379884
f 353/1/101 354/2/101 355/3/101 356/4/101
usemtl black
v 0.526141 0.597559 0.810000
v 0.500000 0.601000 0.810000
v 0.500000 0.597778 0.817778
v 0.525307 0.594446 0.817778
vn 0.120741 0.917120 0.379884
f 357/1/102 358/2/102 359/3/102 360/4/102
usemtl black
v 0.500000 0.601000 0.810000
v 0.473859 0.597559 0.810000
v 0.474693 0.594446 0.817778
v 0.500000 0.597778 0.817778
vn -0.120741 0.917120 0.379884
f 361/1/103 362/2/103 363/3/103 364/4/103
usemtl black
v 0.473859 0.597559 0.810000
v 0.449500 0.587469 0.810000
v 0.451111 0.584678 0.817778
v 0.474693 0.594446 0.817778
vn -0.353995 0.854620 0.379884
f 365/1/104 366/2/104 367/3/104 368/4/104
usemtl black
v 0.449500 0.587469 0.810000
v 0.428582 0.571418 0.810000
v 0.430860 0.569140 0.817778
v 0.451111 0.584678 0.817778
vn -0.563125 0.733879 0.379884
f 369/1/105 370/2/105 371/3/105 372/4/105
usemtl black
v 0.428582 0.571418 0.810000
v 0.412531 0.550500 0.810000
v 0.415322 0.548889 0.817778
v 0.430860 0.569140 0.817778
vn -0.733879 0.563125 0.379884
f 373/1/106 374/2/106 375/3/106 376/4/106
usemtl black
v 0.412531 0.550500 0.810000
v 0.402441 0.526141 0.810000
v 0.405554 0.525307 0.817778
v 0.415322 0.548889 0.817778
vn -0.854620 0.353995 0.379884
f 377/1/107 378/2/107 379/3/107 380/4/107
usemtl black
v 0.402441 0.526141 0.810000
v 0.399000 0.500000 0.810000
v 0.402222 0.500000 0.817778
v 0.405554 0.525307 0.817778
vn -0.917120 0.120741 0.379884
f 381/1/108 382/2/108 383/3/108 384/4/108
usemtl black
v 0.399000 0.500000 0.810000
v 0.402441 0.473859 0.810000
v 0.405554 0.474693 0.817778
v 0.402222 0.500000 0.817778
vn -0.917120 -0.120741 0.379884
f 385/1/109 386/2/109 387/3/109 388/4/109
usemtl black
v 0.402441 0.473859 0.810000
v 0.412531 0.449500 0.810000
v 0.415322 0.451111 0.817778
v 0.405554 0.474693 0.817778
vn -0.854620 -0.353995 0.379884
f 389/1/110 390/2/110 391/3/110 392/4/110
usemtl black
v 0.412531 0.449500 0.810000
v 0.428582 0.428582 0.810000
v 0.430860 0.430860 0.817778
v 0.415322 0.451111 0.817778
vn -0.733879 -0.563125 0.379884
f 393/1/111 394/2/111 395/3/111 396/4/111
usemtl black
v 0.428582 0.428582 0.810000
v 0.449500 0.412531 0.810000
v 0.451111 0.415322 0.817778
v 0.430860 0.430860 0.817778
vn -0.563125 -0.733879 0.379884
f 397/1/112 398/2/112 399/3/112 400/4/112
usemtl black
v 0.449500 0.412531 0.810000
v 0.473859 0.402441 0.810000
v 0.474693 0.405554 0.817778
v 0.451111 0.415322 0.817778
vn -0.353995 -0.854620 0.379884
f 401/1/113 402/2/113 403/3/113 404/4/113
usemtl black
v 0.473859 0.402441 0.810000
v 0.500000 0.399000 0.810000
v 0.500000 0.402222 0.817778
v 0.474693 0.405554 0.817778
vn -0.120741 -0.917120 0.379884
f 405/1/114 406/2/114 407/3/114 408/4/114
usemtl black
v 0.500000 0.399000 0.810000
v 0.526141 0.402441 0.810000
v 0.525307 0.405554 0.817778
v 0.500000 0.402222 0.817778
vn 0.120741 -0.917120 0.379884
f 409/1/115 410/2/115 411/3/115 412/4/115
usemtl black
v 0.526141 0.402441 0.810000
v 0.550500 0.412531 0.810000
v 0.548889 0.415322 0.817778
v 0.525307 0.405554 0.817778
vn 0.353995 -0.854620 0.379884
f 413/1/116 414/2/116 415/3/116 416/4/116
usemtl black
v 0.550500 0.412531 0.810000
v 0.571418 0.428582 0.810000
v 0.569140 0.430860 0.817778
v 0.548889 0.415322 0.817778
vn 0.563125 -0.733879 0.379884
f 417/1/117 418/2/117 419/3/117 420/4/117
usemtl black
v 0.571418 0.428582 0.810000
v 0.587469 0.449500 0.810000
v 0.584678 0.451111 0.817778
v 0.569140 0.430860 0.817778
vn 0.733879 -0.563125 0.379884
f 421/1/118 422/2/118 423/3/118 424/4/118
usemtl black
v 0.587469 0.449500 0.810000
v 0.597559 0.473859 0.810000
v 0.594446 0.474693 0.817778
v 0.584678 0.451111 0.817778
vn 0.854620 -0.353995 0.379884
f 425/1/119 426/2/119 427/3/119 428/4/119
usemtl black
v 0.597559 0.473859 0.810000
v 0.601000 0.500000 0.810000
v 0.597778 0.500000 0.817778
v 0.594446 0.474693 0.817778
vn 0.917120 -0.120741 0.379884
f 429/1/120 430/2/120 431/3/120 432/4/120
usemtl black
v 0.597778 0.500000 0.817778
v 0.594446 0.525307 0.817778
v 0.586933 0.523294 0.821000
v 0.590000 0.500000 0.821000
vn 0.382199 0.050317 0.922709
f 433/1/121 434/2/121 435/3/121 436/4/121
usemtl black
v 0.594446 0.525307 0.817778
v 0.584678 0.548889 0.817778
v 0.577942 0.545000 0.821000
v 0.586933 0.523294 0.821000
vn 0.356152 0.147523 0.922709
f 437/1/122 438/2/122 439/3/122 440/4/122
usemtl black
v 0.584678 0.548889 0.817778
v 0.569140 0.569140 0.817778
v 0.563640 0.563640 0.821000
v 0.577942 0.545000 0.821000
vn 0.305835 0.234675 0.922709
f 441/1/123 442/2/123 443/3/123 444/4/123
usemtl black
v 0.569140 0.569140 0.817778
v 0.548889 0.584678 0.817778
v 0.545000 0.577942 0.821000
v 0.563640 0.563640 0.821000
vn 0.234675 0.305835 0.922709
f 445/1/124 446/2/124 447/3/124 448/4/124
usemtl black
v 0.548889 0.584678 0.817778
v 0.525307 0.594446 0.817778
v 0.523294 0.586933 0.821000
v 0.545000 0.577942 0.821000
vn 0.147523 0.356152 0.922709
f 449/1/125 450/2/125 451/3/125 452/4/125
usemtl black
v 0.525307 0.594446 0.817778
v 0.500000 0.597778 0.817778
v 0.500000 0.590000 0.821000
v 0.523294 0.586933 0.821000
vn 0.050317 0.382199 0.922709
f 453/1/126 454/2/126 455/3/126 456/4/126
usemtl black
v 0.500000 0.597778 0.817778
v 0.474693 0.594446 0.817778
v 0.476706 0.586933 0.821000
v 0.500000 0.590000 0.821000
vn -0.050317 0.382199 0.922709
f 457/1/127 458/2/127 459/3/127 460/4/127
usemtl black
v 0.474693 0.594446 0.817778
v 0.451111 0.584678 0.817778
v 0.455000 0.577942 0.821000
v 0.476706 0.586933 0.821000
vn -0.147523 0.356152 0.922709
f 461/1/128 462/2/128 463/3/128 464/4/128
usemtl black
v 0.451111 0.584678 0.817778
v 0.430860 0.569140 0.817778
v 0.436360 0.563640 0.821000
v 0.455000 0.577942 0.821000
vn -0.234675 0.305835 0.922709
f 465/1/129 466/2/129 467/3/129 468/4/129
usemtl black
v 0.430860 0.569140 0.817778
v 0.415322 0.548889 0.817778
v 0.422058 0.545000 0.821000
v 0.436360 0.563640 0.821000
vn -0.305835 0.234675 0.922709
f 469/1/130 470/2/130 471/3/130 472/4/130
usemtl black
v 0.415322 0.548889 0.817778
v 0.405554 0.525307 0.817778
v 0.413067 0.523294 0.821000
v 0.422058 0.545000 0.821000
vn -0.356152 0.147523 0.922709
f 473/1/131 474/2/131 475/3/131 476/4/131
usemtl black
v 0.405554 0.525307 0.817778
v 0.402222 0.500000 0.817778
v 0.410000 0.500000 0.821000
v 0.413067 0.523294 0.821000
vn -0.382199 0.050317 0.922709
f 477/1/132 478/2/132 479/3/132 480/4/132
usemtl black
v 0.402222 0.500000 0.817778
v 0.405554 0.474693 0.817778
v 0.413067 0.476706 0.821000
v 0.410000 0.500000 0.821000
vn -0.382199 -0.050317 0.922709
f 481/1/133 482/2/133 483/3/133 484/4/133
usemtl black
v 0.405554 0.474693 0.817778
v 0.415322 0.451111 0.817778
v 0.422058 0.455000 0.821000
v 0.413067 0.476706 0.821000
vn -0.356152 -0.147523 0.922709
f 485/1/134 486/2/134 487/3/134 488/4/134
usemtl black
v 0.415322 0.451111 0.817778
v 0.430860 0.430860 0.817778
v 0.436360 0.436360 0.821000
v 0.422058 0.455000 0.821000
vn -0.305835 -0.234675 0.922709
f 489/1/135 490/2/135 491/3/135 492/4/135
usemtl black
v 0.430860 0.430860 0.817778
v 0.451111 0.415322 0.817778
v 0.455000 0.422058 0.821000
v 0.436360 0.436360 0.821000
vn -0.234675 -0.305835 0.922709
f 493/1/136 494/2/136 495/3/136 496/4/136
usemtl black
v 0.451111 0.415322 0.817778
v 0.474693 0.405554 0.817778
v 0.476706 0.413067 0.821000
v 0.455000 0.422058 0.821000
vn -0.147523 -0.356152 0.922709
f 497/1/137 498/2/137 499/3/137 500/4/137
usemtl black
v 0.474693 0.405554 0.817778
v 0.500000 0.402222 0.817778
v 0.500000 0.410000 0.821000
v 0.476706 0.413067 0.821000
vn -0.050317 -0.382199 0.922709
f 501/1/138 502/2/138 503/3/138 504/4/138
usemtl black
v 0.500000 0.402222 0.817778
v 0.525307 0.405554 0.817778
v 0.523294 0.413067 0.821000
v 0.500000 0.410000 0.821000
vn 0.050317 -0.382199 0.922709
f 505/1/139 506/2/139 507/3/139 508/4/139
usemtl black
v 0.525307 0.405554 0.817778
v 0.548889 0.415322 0.817778
v 0.545000 0.422058 0.821000
v 0.523294 0.413067 0.821000
vn 0.147523 -0.356152 0.922709
f 509/1/140 510/2/140 511/3/140 512/4/140
usemtl black
v 0.548889 0.415322 0.817778
v 0.569140 0.430860 0.817778
v 0.563640 0.436360 0.821000
v 0.545000 0.422058 0.821000
vn 0.234675 -0.305835 0.922709
f 513/1/141 514/2/141 515/3/141 516/4/141
usemtl black
v 0.569140 0.430860 0.817778
v 0.584678 0.451111 0.817778
v 0.577942 0.455000 0.821000
v 0.563640 0.436360 0.821000
vn 0.305835 -0.234675 0.922709
f 517/1/142 518/2/142 519/3/142 520/4/142
usemtl black
v 0.584678 0.451111 0.817778
v 0.594446 0.474693 0.817778
v 0.586933 0.476706 0.821000
v 0.577942 0.455000 0.821000
vn 0.356152 -0.147523 0.922709
f 521/1/143 522/2/143 523/3/143 524/4/143
usemtl black
v 0.594446 0.474693 0.817778
v 0.597778 0.500000 0.817778
v 0.590000 0.500000 0.821000
v 0.586933 0.476706 0.821000
vn 0.382199 -0.050317 0.922709
f 525/1/144 526/2/144 527/3/144 528/4/144
usemtl black
v 0.590000 0.500000 0.821000
v 0.586933 0.523294 0.821000
v 0.579420 0.521281 0.817778
v 0.582222 0.500000 0.817778
vn -0.382199 -0.050317 0.922709
f 529/1/145 530/2/145 531/3/145 532/4/145
usemtl black
v 0.586933 0.523294 0.821000
v 0.577942 0.545000 0.821000
v 0.571206 0.541111 0.817778
v 0.579420 0.521281 0.817778
vn -0.356152 -0.147523 0.922709
f 533/1/146 534/2/146 535/3/146 536/4/146
usemtl black
v 0.577942 0.545000 0.821000
v 0.563640 0.563640 0.821000
v 0.558140 0.558140 0.817778
v 0.571206 0.541111 0.817778
vn -0.305835 -0.234675 0.922709
f 537/1/147 538/2/147 539/3/147 540/4/147
usemtl black
v 0.563640 0.563640 0.821000
v 0.545000 0.577942 0.821000
v 0.541111 0.571206 0.817778
v 0.558140 0.558140 0.817778
vn -0.234675 -0.305835 0.922709
f 541/1/148 542/2/148 543/3/148 544/4/148
usemtl black
v 0.545000 0.577942 0.821000
v 0.523294 0.586933 0.821000
v 0.521281 0.579420 0.817778
v 0.541111 0.571206 0.817778
vn -0.147523 -0.356152 0.922709
f 545/1/149 546/2/149 547/3/149 548/4/149
usemtl black
v 0.523294 0.586933 0.821000
v 0.500000 0.590000 0.821000
v 0.500000 0.582222 0.817778
v 0.521281 0.579420 0.817778
vn -0.050317 -0.382199 0.922709
f 549/1/150 550/2/150 551/3/150 552/4/150
usemtl black
v 0.500000 0.590000 0.821000
v 0.476706 0.586933 0.821000
v 0.478719 0.579420 0.817778
v 0.500000 0.582222 0.817778
vn 0.050317 -0.382199 0.922709
f 553/1/151 554/2/151 555/3/151 556/4/151
usemtl black
v 0.476706 0.586933 0.821000
v 0.455000 0.577942 0.821000
v 0.458889 0.571206 0.817778
v 0.478719 0.579420 0.817778
vn 0.147523 -0.356152 0.922709
f 557/1/152 558/2/152 559/3/152 560/4/152
usemtl black
v 0.455000 0.577942 0.821000
v 0.436360 0.563640 0.821000
v 0.441860 0.558140 0.817778
v 0.458889 0.571206 0.817778
vn 0.234675 -0.305835 0.922709
f 561/1/153 562/2/153 563/3/153 564/4/153
usemtl black
v 0.436360 0.563640 0.821000
v 0.422058 0.545000 0.821000
v 0.428794 0.541111 0.817778
v 0.441860 0.558140 0.817778
vn 0.305835 -0.234675 0.922709
f 565/1/154 566/2/154 567/3/154 568/4/154
usemtl black
v 0.422058 0.545000 0.821000
v 0.413067 0.523294 0.821000
v 0.420580 0.521281 0.817778
v 0.428794 0.541111 0.817778
vn 0.356152 -0.147523 0.922709
f 569/1/155 570/2/155 571/3/155 572/4/155
usemtl black
v 0.413067 0.523294 0.821000
v 0.410000 0.500000 0.821000
v 0.417778 0.500000 0.817778
v 0.420580 0.521281 0.817778
vn 0.382199 -0.050317 0.922709
f 573/1/156 574/2/156 575/3/156 576/4/156
usemtl black
v 0.410000 0.500000 0.821000
v 0.413067 0.476706 0.821000
v 0.420580 0.478719 0.817778
v 0.417778 0.500000 0.817778
vn 0.382199 0.050317 0.922709
f 577/1/157 578/2/157 579/3/157 580/4/157
usemtl black
v 0.413067 0.476706 0.821000
v 0.422058 0.455000 0.821000
v 0.428794 0.458889 0.817778
v 0.420580 0.478719 0.817778
vn 0.356152 0.147523 0.922709
f 581/1/158 582/2/158 583/3/158 584/4/158
usemtl black
v 0.422058 0.455000 0.821000
v 0.436360 0.436360 0.821000
v 0.441860 0.441860 0.817778
v 0.428794 0.458889 0.817778
vn 0.305835 0.234675 0.922709
f 585/1/159 586/2/159 587/3/159 588/4/159
usemtl black
v 0.436360 0.436360 0.821000
v 0.455000 0.422058 0.821000
v 0.458889 0.428794 0.817778
v 0.441860 0.441860 0.817778
vn 0.234675 0.305835 0.922709
f 589/1/160 590/2/160 591/3/160 592/4/160
usemtl black
v 0.455000 0.422058 0.821000
v 0.476706 0.413067 0.821000
v 0.478719 0.420580 0.817778
v 0.458889 0.428794 0.817778
vn 0.147523 0.356152 0.922709
f 593/1/161 594/2/161 595/3/161 596/4/161
usemtl black
v 0.476706 0.413067 0.821000
v 0.500000 0.410000 0.821000
v 0.500000 0.417778 0.817778
v 0.478719 0.420580 0.817778
vn 0.050317 0.382199 0.922709
f 597/1/162 598/2/162 599/3/162 600/4/162
usemtl black
v 0.500000 0.410000 0.821000
v 0.523294 0.413067 0.821000
v 0.521281 0.420580 0.817778
v 0.500000 0.417778 0.817778
vn -0.050317 0.382199 0.922709
f 601/1/163 602/2/163 603/3/163 604/4/163
usemtl black
v 0.523294 0.413067 0.821000
v 0.545000 0.422058 0.821000
v 0.541111 0.428794 0.817778
v 0.521281 0.420580 0.817778
vn -0.147523 0.356152 0.922709
f 605/1/164 606/2/164 607/3/164 608/4/164
usemtl black
v 0.545000 0.422058 0.821000
v 0.563640 0.436360 0.821000
v 0.558140 0.441860 0.817778
v 0.541111 0.428794 0.817778
vn -0.234675 0.305835 0.922709
f 609/1/165 610/2/165 611/3/165 612/4/165
usemtl black
v 0.563640 0.436360 0.821000
v 0.577942 0.455000 0.821000
v 0.571206 0.458889 0.817778
v 0.558140 0.441860 0.817778
vn -0.305835 0.234675 0.922709
f 613/1/166 614/2/166 615/3/166 616/4/166
usemtl black
v 0.577942 0.455000 0.821000
v 0.586933 0.476706 0.821000
v 0.579420 0.478719 0.817778
v 0.571206 0.458889 0.817778
vn -0.356152 0.147523 0.922709
f 617/1/167 618/2/167 619/3/167 620/4/167
usemtl black
v 0.586933 0.476706 0.821000
v 0.590000 0.500000 0.821000
v 0.582222 0.500000 0.817778
v 0.579420 0.478719 0.817778
vn -0.382199 0.050317 0.922709
f 621/1/168 622/2/168 623/3/168 624/4/168
usemtl black
v 0.582222 0.500000 0.817778
v 0.579420 0.521281 0.817778
v 0.576308 0.520447 0.810000
v 0.579000 0.500000 0.810000
vn -0.917120 -0.120741 0.379884
f 625/1/169 626/2/169 627/3/169 628/4/169
usemtl black
v 0.579420 0.521281 0.817778
v 0.571206 0.541111 0.817778
v 0.568416 0.539500 0.810000
v 0.576308 0.520447 0.810000
vn -0.854620 -0.353995 0.379884
f 629/1/170 630/2/170 631/3/170 632/4/170
usemtl black
v 0.571206 0.541111 0.817778
v 0.558140 0.558140 0.817778
v 0.555861 0.555861 0.810000
v 0.568416 0.539500 0.810000
vn -0.733879 -0.563125 0.379884
f 633/1/171 634/2/171 635/3/171 636/4/171
usemtl black
v 0.558140 0.558140 0.817778
v 0.541111 0.571206 0.817778
v 0.539500 0.568416 0.810000
v 0.555861 0.555861 0.810000
vn -0.563125 -0.733879 0.379884
f 637/1/172 638/2/172 639/3/172 640/4/172
usemtl black
v 0.541111 0.571206 0.817778
v 0.521281 0.579420 0.817778
v 0.520447 0.576308 0.810000
v 0.539500 0.568416 0.810000
vn -0.353995 -0.854620 0.379884
f 641/1/173 642/2/173 643/3/173 644/4/173
usemtl black
v 0.521281 0.579420 0.817778
v 0.500000 0.582222 0.817778
v 0.500000 0.579000 0.810000
v 0.520447 0.576308 0.810000
vn -0.120741 -0.917120 0.379884
f 645/1/174 646/2/174 647/3/174 648/4/174
usemtl black
v 0.500000 0.582222 0.817778
v 0.478719 0.579420 0.817778
v 0.479553 0.576308 0.810000
v 0.500000 0.579000 0.810000
vn 0.120741 -0.917120 0.379884
f 649/1/175 650/2/175 651/3/175 652/4/175
usemtl black
v 0.478719 0.579420 0.817778
v 0.458889 0.571206 0.817778
v 0.460500 0.568416 0.810000
v 0.479553 0.576308 0.810000
vn 0.353995 -0.854620 0.379884
f 653/1/176 654/2/176 655/3/176 656/4/176
usemtl black
v 0.458889 0.571206 0.817778
v 0.441860 0.558140 0.817778
v 0.444139 0.555861 0.810000
v 0.460500 0.568416 0.810000
vn 0.563125 -0.733879 0.379884
f 657/1/177 658/2/177 659/3/177 660/4/177
usemtl black
v 0.441860 0.558140 0.817778
v 0.428794 0.541111 0.817778
v 0.431584 0.539500 0.810000
v 0.444139 0.555861 0.810000
vn 0.733879 -0.563125 0.379884
f 661/1/178 662/2/178 663/3/178 664/4/178
usemtl black
v 0.428794 0.541111 0.817778
v 0.420580 0.521281 0.817778
v 0.423692 0.520447 0.810000
v 0.431584 0.539500 0.810000
vn 0.854620 -0.353995 0.379884
f 665/1/179 666/2/179 667/3/179 668/4/179
usemtl black
v 0.420580 0.521281 0.817778
v 0.417778 0.500000 0.817778
v 0.421000 0.500000 0.810000
v 0.423692 0.520447 0.810000
vn 0.917120 -0.120741 0.379884
f 669/1/180 670/2/180 671/3/180 672/4/180
usemtl black
v 0.417778 0.500000 0.817778
v 0.420580 0.478719 0.817778
v 0.423692 0.479553 0.810000
v 0.421000 0.500000 0.810000
vn 0.917120 0.120741 0.379884
f 673/1/181 674/2/181 675/3/181 676/4/181
usemtl black
v 0.420580 0.478719 0.817778
v 0.428794 0.458889 0.817778
v 0.431584 0.460500 0.810000
v 0.423692 0.479553 0.810000
vn 0.854620 0.353995 0.379884
f 677/1/182 678/2/182 679/3/182 680/4/182
usemtl black
v 0.428794 0.458889 0.817778
v 0.441860 0.441860 0.817778
v 0.444139 0.444139 0.810000
v 0.431584 0.460500 0.810000
vn 0.733879 0.563125 0.379884
f 681/1/183 682/2/183 683/3/183 684/4/183
usemtl black
v 0.441860 0.441860 0.817778
v 0.458889 0.428794 0.817778
v 0.460500 0.431584 0.810000
v 0.444139 0.444139 0.810000
vn 0.563125 0.733879 0.379884
f 685/1/184 686/2/184 687/3/184 688/4/184
usemtl black
v 0.458889 0.428794 0.817778
v 0.478719 0.420580 0.817778
v 0.479553 0.423692 0.810000
v 0.460500 0.431584 0.810000
vn 0.353995 0.854620 0.379884
f 689/1/185 690/2/185 691/3/185 692/4/185
usemtl black
v 0.478719 0.420580 0.817778
v 0.500000 0.417778 0.817778
v 0.500000 0.421000 0.810000
v 0.479553 0.423692 0.810000
vn 0.120741 0.917120 0.379884
f 693/1/186 694/2/186 695/3/186 696/4/186
usemtl black
v 0.500000 0.417778 0.817778
v 0.521281 0.420580 0.817778
v 0.520447 0.423692 0.810000
v 0.500000 0.421000 0.810000
vn -0.120741 0.917120 0.379884
f 697/1/187 698/2/187 699/3/187 700/4/187
usemtl black
v 0.521281 0.420580 0.817778
v 0.541111 0.428794 0.817778
v 0.539500 0.431584 0.810000
v 0.520447 0.423692 0.810000
vn -0.353995 0.854620 0.379884
f 701/1/188 702/2/188 703/3/188 704/4/188
usemtl black
v 0.541111 0.428794 0.817778
v 0.558140 0.441860 0.817778
v 0.555861 0.444139 0.810000
v 0.539500 0.431584 0.810000
vn -0.563125 0.733879 0.379884
f 705/1/189 706/2/189 707/3/189 708/4/189
usemtl black
v 0.558140 0.441860 0.817778
v 0.571206 0.458889 0.817778
v 0.568416 0.460500 0.810000
v 0.555861 0.444139 0.810000
vn -0.733879 0.563125 0.379884
f 709/1/190 710/2/190 711/3/190 712/4/190
usemtl black
v 0.571206 0.458889 0.817778
v 0.579420 0.478719 0.817778
v 0.576308 0.479553 0.810000
v 0.568416 0.460500 0.810000
vn -0.854620 0.353995 0.379884
f 713/1/191 714/2/191 715/3/191 716/4/191
usemtl black
v 0.579420 0.478719 0.817778
v 0.582222 0.500000 0.817778
v 0.579000 0.500000 0.810000
v 0.576308 0.479553 0.810000
vn -0.917120 0.120741 0.379884
f 717/1/192 718/2/192 719/3/192 720/4/192
usemtl black
v 0.579000 0.500000 0.810000
v 0.576308 0.520447 0.810000
v 0.579420 0.521281 0.802222
v 0.582222 0.500000 0.802222
vn -0.917120 -0.120741 -0.379884
f 721/1/193 722/2/193 723/3/193 724/4/193
usemtl black
v 0.576308 0.520447 0.810000
v 0.568416 0.539500 0.810000
v 0.571206 0.541111 0.802222
v 0.579420 0.521281 0.802222
vn -0.854620 -0.353995 -0.379884
f 725/1/194 726/2/194 727/3/194 728/4/194
usemtl black
v 0.568416 0.539500 0.810000
v 0.555861 0.555861 0.810000
v 0.558140 0.558140 0.802222
v 0.571206 0.541111 0.802222
vn -0.733879 -0.563125 -0.379884
f 729/1/195 730/2/195 731/3/195 732/4/195
usemtl black
v 0.555861 0.555861 0.810000
v 0.539500 0.568416 0.810000
v 0.541111 0.571206 0.802222
v 0.558140 0.558140 0.802222
vn -0.563125 -0.733879 -0.379884
f 733/1/196 734/2/196 735/3/196 736/4/196
usemtl black
v 0.539500 0.568416 0.810000
v 0.520447 0.576308 0.810000
v 0.521281 0.579420 0.802222
v 0.541111 0.571206 0.802222
vn -0.353995 -0.854620 -0.379884
f 737/1/197 738/2/197 739/3/197 740/4/197
usemtl black
v 0.520447 0.576308 0.810000
v 0.500000 0.579000 0.810000
v 0.500000 0.582222 0.802222
v 0.521281 0.579420 0.802222
vn -0.120741 -0.917120 -0.379884
f 741/1/198 742/2/198 743/3/198 744/4/198
usemtl black
v 0.500000 0.579000 0.810000
v 0.479553 0.576308 0.810000
v 0.478719 0.579420 0.802222
v 0.500000 0.582222 0.802222
vn 0.120741 -0.917120 -0.379884
f 745/1/199 746/2/199 747/3/199 748/4/199
usemtl black
v 0.479553 0.576308 0.810000
v 0.460500 0.568416 0.810000
v 0.458889 0.571206 0.802222
v 0.478719 0.579420 0.802222
vn 0.353995 -0.854620 -0.379884
f 749/1/200 750/2/200 751/3/200 752/4/200
usemtl black
v 0.460500 0.568416 0.810000
v 0.444139 0.555861 0.810000
v 0.441860 0.558140 0.802222
v 0.458889 0.571206 0.802222
vn 0.563125 -0.733879 -0.379884
f 753/1/201 754/2/201 755/3/201 756/4/201
usemtl black
v 0.444139 0.555861 0.810000
v 0.431584 0.539500 0.810000
v 0.428794 0.541111 0.802222
v 0.441860 0.558140 0.802222
vn 0.733879 -0.563125 -0.379884
f 757/1/202 758/2/202 759/3/202 760/4/202
usemtl black
v 0.431584 0.539500 0.810000
v 0.423692 0.520447 0.810000
v 0.420580 0.521281 0.802222
v 0.428794 0.541111 0.802222
vn 0.854620 -0.353995 -0.379884
f 761/1/203 762/2/203 763/3/203 764/4/203
usemtl black
v 0.423692 0.520447 0.810000
v 0.421000 0.500000 0.810000
v 0.417778 0.500000 0.802222
v 0.420580 0.521281 0.802222
vn 0.917120 -0.120741 -0.379884
f 765/1/204 766/2/204 767/3/204 768/4/204
usemtl black
v 0.421000 0.500000 0.810000
v 0.423692 0.479553 0.810000
v 0.420580 0.478719 0.802222
v 0.417778 0.500000 0.802222
vn 0.917120 0.120741 -0.379884
f 769/1/205 770/2/205 771/3/205 772/4/205
usemtl black
v 0.423692 0.479553 0.810000
v 0.431584 0.460500 0.810000
v 0.428794 0.458889 0.802222
v 0.420580 0.478719 0.802222
vn 0.854620 0.353995 -0.379884
f 773/1/206 774/2/206 775/3/206 776/4/206
usemtl black
v 0.431584 0.460500 0.810000
v 0.444139 0.444139 0.810000
v 0.441860 0.441860 0.802222
v 0.428794 0.458889 0.802222
vn 0.733879 0.563125 -0.379884
f 777/1/207 778/2/207 779/3/207 780/4/207
usemtl black
v 0.444139 0.444139 0.810000
v 0.460500 0.431584 0.810000
v 0.458889 0.428794 0.802222
v 0.441860 0.441860 0.802222
vn 0.563125 0.733879 -0.379884
f 781/1/208 782/2/208 783/3/208 784/4/208
usemtl black
v 0.460500 0.431584 0.810000
v 0.479553 0.423692 0.810000
v 0.478719 0.420580 0.802222
v 0.458889 0.428794 0.802222
vn 0.353995 0.854620 -0.379884
f 785/1/209 786/2/209 787/3/209 788/4/209
usemtl black
v 0.479553 0.423692 0.810000
v 0.500000 0.421000 0.810000
v 0.500000 0.417778 0.802222
v 0.478719 0.420580 0.802222
vn 0.120741 0.917120 -0.379884
f 789/1/210 790/2/210 791/3/210 792/4/210
usemtl black
v 0.500000 0.421000 0.810000
v 0.520447 0.423692 0.810000
v 0.521281 0.420580 0.802222
v 0.500000 0.417778 0.802222
vn -0.120741 0.917120 -0.379884
f 793/1/211 794/2/211 795/3/211 796/4/211
usemtl black
v 0.520447 0.423692 0.810000
v 0.539500 0.431584 0.810000
v 0.541111 0.428794 0.802222
v 0.521281 0.420580 0.802222
vn -0.353995 0.854620 -0.379884
f 797/1/212 798/2/212 799/3/212 800/4/212
usemtl black
v 0.539500 0.431584 0.810000
v 0.555861 0.444139 0.810000
v 0.558140 0.441860 0.802222
v 0.541111 0.428794 0.802222
vn -0.563125 0.733879 -0.379884
f 801/1/213 802/2/213 803/3/213 804/4/213
usemtl black
v 0.555861 0.444139 0.810000
v 0.568416 0.460500 0.810000
v 0.571206 0.458889 0.802222
v 0.558140 0.441860 0.802222
vn -0.733879 0.563125 -0.379884
f 805/1/214 806/2/214 807/3/214 808/4/214
usemtl black
v 0.568416 0.460500 0.810000
v 0.576308 0.479553 0.810000
v 0.579420 0.478719 0.802222
v 0.571206 0.458889 0.802222
vn -0.854620 0.353995 -0.379884
f 809/1/215 810/2/215 811/3/215 812/4/215
usemtl black
v 0.576308 0.479553 0.810000
v 0.579000 0.500000 0.810000
v 0.582222 0.500000 0.802222
v 0.579420 0.478719 0.802222
vn -0.917120 0.120741 -0.379884
f 813/1/216 814/2/216 815/3/216 816/4/216
usemtl black
v 0.582222 0.500000 0.802222
v 0.579420 0.521281 0.802222
v 0.586933 0.523294 0.799000
v 0.590000 0.500000 0.799000
vn -0.382199 -0.050317 -0.922709
f 817/1/217 818/2/217 819/3/217 820/4/217
usemtl black
v 0.579420 0.521281 0.802222
v 0.571206 0.541111 0.802222
v 0.577942 0.545000 0.799000
v 0.586933 0.523294 0.799000
vn -0.356152 -0.147523 -0.922709
f 821/1/218 822/2/218 823/3/218 824/4/218
usemtl black
v 0.571206 0.541111 0.802222
v 0.558140 0.558140 0.802222
v 0.563640 0.563640 0.799000
v 0.577942 0.545000 0.799000
vn -0.305835 -0.234675 -0.922709
f 825/1/219 826/2/219 827/3/219 828/4/219
usemtl black
v 0.558140 0.558140 0.802222
v 0.541111 0.571206 0.802222
v 0.545000 0.577942 0.799000
v 0.563640 0.563640 0.799000
vn -0.234675 -0.305835 -0.922709
f 829/1/220 830/2/220 831/3/220 832/4/220
usemtl black
v 0.541111 0.571206 0.802222
v 0.521281 0.579420 0.802222
v 0.523294 0.586933 0.799000
v 0.545000 0.577942 0.799000
vn -0.147523 -0.356152 -0.922709
f 833/1/221 834/2/221 835/3/221 836/4/221
usemtl black
v 0.521281 0.579420 0.802222
v 0.500000 0.582222 0.802222
v 0.500000 0.590000 0.799000
v 0.523294 0.586933 0.799000
vn -0.050317 -0.382199 -0.922709
f 837/1/222 838/2/222 839/3/222 840/4/222
usemtl black
v 0.500000 0.582222 0.802222
v 0.478719 0.579420 0.802222
v 0.476706 0.586933 0.799000
v 0.500000 0.590000 0.799000
vn 0.050317 -0.382199 -0.922709
f 841/1/223 842/2/223 843/3/223 844/4/223
usemtl black
v 0.478719 0.579420 0.802222
v 0.458889 0.571206 0.802222
v 0.455000 0.577942 0.799000
v 0.476706 0.586933 0.799000
vn 0.147523 -0.356152 -0.922709
f 845/1/224 846/2/224 847/3/224 848/4/224
usemtl black
v 0.458889 0.571206 0.802222
v 0.441860 0.558140 0.802222
v 0.436360 0.563640 0.799000
v 0.455000 0.577942 0.799000
vn 0.234675 -0.305835 -0.922709
f 849/1/225 850/2/225 851/3/225 852/4/225
usemtl black
v 0.441860 0.558140 0.802222
v 0.428794 0.541111 0.802222
v 0.422058 0.545000 0.799000
v 0.436360 0.563640 0.799000
vn 0.305835 -0.234675 -0.922709
f 853/1/226 854/2/226 855/3/226 856/4/226
usemtl black
v 0.428794 0.541111 0.802222
v 0.420580 0.521281 0.802222
v 0.413067 0.523294 0.799000
v 0.422058 0.545000 0.799000
vn 0.356152 -0.147523 -0.922709
f 857/1/227 858/2/227 859/3/227 860/4/227
usemtl black
v 0.420580 0.521281 0.802222
v 0.417778 0.500000 0.802222
v 0.410000 0.500000 0.799000
v 0.413067 0.523294 0.799000
vn 0.382199 -0.050317 -0.922709
f 861/1/228 862/2/228 863/3/228 864/4/228
usemtl black
v 0.417778 0.500000 0.802222
v 0.420580 0.478719 0.802222
v 0.413067 0.476706 0.799000
v 0.410000 0.500000 0.799000
vn 0.382199 0.050317 -0.922709
f 865/1/229 866/2/229 867/3/229 868/4/229
usemtl black
v 0.420580 0.478719 0.802222
v 0.428794 0.458889 0.802222
v 0.422058 0.455000 0.799000
v 0.413067 0.476706 0.799000
vn 0.356152 0.147523 -0.922709
f 869/1/230 870/2/230 871/3/230 872/4/230
usemtl black
v 0.428794 0.458889 0.802222
v 0.441860 0.441860 0.802222
v 0.436360 0.436360 0.799000
v 0.422058 0.455000 0.799000
vn 0.305835 0.234675 -0.922709
f 873/1/231 874/2/231 875/3/231 876/4/231
usemtl black
v 0.441860 0.441860 0.802222
v 0.458889 0.428794 0.802222
v 0.455000 0.422058 0.799000
v 0.436360 0.436360 0.799000
vn 0.234675 0.305835 -0.922709
f 877/1/232 878/2/232 879/3/232 880/4/232
usemtl black
v 0.458889 0.428794 0.802222
v 0.478719 0.420580 0.802222
v 0.476706 0.413067 0.799000
v 0.455000 0.422058 0.799000
vn 0.147523 0.356152 -0.922709
f 881/1/233 882/2/233 883/3/233 884/4/233
usemtl black
v 0.478719 0.420580 0.802222
v 0.500000 0.417778 0.802222
v 0.500000 0.410000 0.799000
v 0.476706 0.413067 0.799000
vn 0.050317 0.382199 -0.922709
f 885/1/234 886/2/234 887/3/234 888/4/234
usemtl black
v 0.500000 0.417778 0.802222
v 0.521281 0.420580 0.802222
v 0.523294 0.413067 0.799000
v 0.500000 0.410000 0.799000
vn -0.050317 0.382199 -0.922709
f 889/1/235 890/2/235 891/3/235 892/4/235
usemtl black
v 0.521281 0.420580 0.802222
v 0.541111 0.428794 0.802222
v 0.545000 0.422058 0.799000
v 0.523294 0.413067 0.799000
vn -0.147523 0.356152 -0.922709
f 893/1/236 894/2/236 895/3/236 896/4/236
usemtl black
v 0.541111 0.428794 0.802222
v 0.558140 0.441860 0.802222
v 0.563640 0.436360 0.799000
v 0.545000 0.422058 0.799000
vn -0.234675 0.305835 -0.922709
f 897/1/237 898/2/237 899/3/237 900/4/237
usemtl black
v 0.558140 0.441860 0.802222
v 0.571206 0.458889 0.802222
v 0.577942 0.455000 0.799000
v 0.563640 0.436360 0.799000
vn -0.305835 0.234675 -0.922709
f 901/1/238 902/2/238 903/3/238 904/4/238
usemtl black
v 0.571206 0.458889 0.802222
v 0.579420 0.478719 0.802222
v 0.586933 0.476706 0.799000
v 0.577942 0.455000 0.799000
vn -0.356152 0.147523 -0.922709
f 905/1/239 906/2/239 907/3/239 908/4/239
usemtl black
v 0.579420 0.478719 0.802222
v 0.582222 0.500000 0.802222
v 0.590000 0.500000 0.799000
v 0.586933 0.476706 0.799000
vn -0.382199 0.050317 -0.922709
f 909/1/240 910/2/240 911/3/240 912/4/240
usemtl black
v 0.590000 0.500000 0.799000
v 0.586933 0.523294 0.799000
v 0.594446 0.525307 0.802222
v 0.597778 0.500000 0.802222
vn 0.382199 0.050317 -0.922709
f 913/1/241 914/2/241 915/3/241 916/4/241
usemtl black
v 0.586933 0.523294 0.799000
v 0.577942 0.545000 0.799000
v 0.584678 0.548889 0.802222
v 0.594446 0.525307 0.802222
vn 0.356152 0.147523 -0.922709
f 917/1/242 918/2/242 919/3/242 920/4/242
usemtl black
v 0.577942 0.545000 0.799000
v 0.563640 0.563640 0.799000
v 0.569140 0.569140 0.802222
v 0.584678 0.548889 0.802222
vn 0.305835 0.234675 -0.922709
f 921/1/243 922/2/243 923/3/243 924/4/243
usemtl black
v 0.563640 0.563640 0.799000
v 0.545000 0.577942 0.799000
v 0.548889 0.584678 0.802222
v 0.569140 0.569140 0.802222
vn 0.234675 0.305835 -0.922709
f 925/1/244 926/2/244 927/3/244 928/4/244
usemtl black
v 0.545000 0.577942 0.799000
v 0.523294 0.586933 0.799000
v 0.525307 0.594446 0.802222
v 0.548889 0.584678 0.802222
vn 0.147523 0.356152 -0.922709
f 929/1/245 930/2/245 931/3/245 932/4/245
usemtl black
v 0.523294 0.586933 0.799000
v 0.500000 0.590000 0.799000
v 0.500000 0.597778 0.802222
v 0.525307 0.594446 0.802222
vn 0.050317 0.382199 -0.922709
f 933/1/246 934/2/246 935/3/246 936/4/246
usemtl black
v 0.500000 0.590000 0.799000
v 0.476706 0.586933 0.799000
v 0.474693 0.594446 0.802222
v 0.500000 0.597778 0.802222
vn -0.050317 0.382199 -0.922709
f 937/1/247 938/2/247 939/3/247 940/4/247
usemtl black
v 0.476706 0.586933 0.799000
v 0.455000 0.577942 0.799000
v 0.451111 0.584678 0.802222
v 0.474693 0.594446 0.802222
vn -0.147523 0.356152 -0.922709
f 941/1/248 942/2/248 943/3/248 944/4/248
usemtl black
v 0.455000 0.577942 0.799000
v 0.436360 0.563640 0.799000
v 0.430860 0.569140 0.802222
v 0.451111 0.584678 0.802222
vn -0.234675 0.305835 -0.922709
f 945/1/249 946/2/249 947/3/249 948/4/249
usemtl black
v 0.436360 0.563640 0.799000
v 0.422058 0.545000 0.799000
v 0.415322 0.548889 0.802222
v 0.430860 0.569140 0.802222
vn -0.305835 0.234675 -0.922709
f 949/1/250 950/2/250 951/3/250 952/4/250
usemtl black
v 0.422058 0.545000 0.799000
v 0.413067 0.523294 0.799000
v 0.405554 0.525307 0.802222
v 0.415322 0.548889 0.802222
vn -0.356152 0.147523 -0.922709
f 953/1/251 954/2/251 955/3/251 956/4/251
usemtl black
v 0.413067 0.523294 0.799000
v 0.410000 0.500000 0.799000
v 0.402222 0.500000 0.802222
v 0.405554 0.525307 0.802222
vn -0.382199 0.050317 -0.922709
f 957/1/252 958/2/252 959/3/252 960/4/252
usemtl black
v 0.410000 0.500000 0.799000
v 0.413067 0.476706 0.799000
v 0.405554 0.474693 0.802222
v 0.402222 0.500000 0.802222
vn -0.382199 -0.050317 -0.922709
f 961/1/253 962/2/253 963/3/253 964/4/253
usemtl black
v 0.413067 0.476706 0.799000
v 0.422058 0.455000 0.799000
v 0.415322 0.451111 0.802222
v 0.405554 0.474693 0.802222
vn -0.356152 -0.147523 -0.922709
f 965/1/254 966/2/254 967/3/254 968/4/254
usemtl black
v 0.422058 0.455000 0.799000
v 0.436360 0.436360 0.799000
v 0.430860 0.430860 0.802222
v 0.415322 0.451111 0.802222
vn -0.305835 -0.234675 -0.922709
f 969/1/255 970/2/255 971/3/255 972/4/255
usemtl black
v 0.436360 0.436360 0.799000
v 0.455000 0.422058 0.799000
v 0.451111 0.415322 0.802222
v 0.430860 0.430860 0.802222
vn -0.234675 -0.305835 -0.922709
f 973/1/256 974/2/256 975/3/256 976/4/256
usemtl black
v 0.455000 0.422058 0.799000
v 0.476706 0.413067 0.799000
v 0.474693 0.405554 0.802222
v 0.451111 0.415322 0.802222
vn -0.147523 -0.356152 -0.922709
f 977/1/257 978/2/257 979/3/257 980/4/257
usemtl black
v 0.476706 0.413067 0.799000
v 0.500000 0.410000 0.799000
v 0.500000 0.402222 0.802222
v 0.474693 0.405554 0.802222
vn -0.050317 -0.382199 -0.922709
f 981/1/258 982/2/258 983/3/258 984/4/258
usemtl black
v 0.500000 0.410000 0.799000
v 0.523294 0.413067 0.799000
v 0.525307 0.405554 0.802222
v 0.500000 0.402222 0.802222
vn 0.050317 -0.382199 -0.922709
f 985/1/259 986/2/259 987/3/259 988/4/259
usemtl black
v 0.523294 0.413067 0.799000
v 0.545000 0.422058 0.799000
v 0.548889 0.415322 0.802222
v 0.525307 0.405554 0.802222
vn 0.147523 -0.356152 -0.922709
f 989/1/260 990/2/260 991/3/260 992/4/260
usemtl black
v 0.545000 0.422058 0.799000
v 0.563640 0.436360 0.799000
v 0.569140 0.430860 0.802222
v 0.548889 0.415322 0.802222
vn 0.234675 -0.305835 -0.922709
f 993/1/261 994/2/261 995/3/261 996/4/261
usemtl black
v 0.563640 0.436360 0.799000
v 0.577942 0.455000 0.799000
v 0.584678 0.451111 0.802222
v 0.569140 0.430860 0.802222
vn 0.305835 -0.234675 -0.922709
f 997/1/262 998/2/262 999/3/262 1000/4/262
usemtl black
v 0.577942 0.455000 0.799000
v 0.586933 0.476706 0.799000
v 0.594446 0.474693 0.802222
v 0.584678 0.451111 0.802222
vn 0.356152 -0.147523 -0.922709
f 1001/1/263 1002/2/263 1003/3/263 1004/4/263
usemtl black
v 0.586933 0.476706 0.799000
v 0.590000 0.500000 0.799000
v 0.597778 0.500000 0.802222
v 0.594446 0.474693 0.802222
vn 0.382199 -0.050317 -0.922709
f 1005/1/264 1006/2/264 1007/3/264 1008/4/264
usemtl black
v 0.597778 0.500000 0.802222
v 0.594446 0.525307 0.802222
v 0.597559 0.526141 0.810000
v 0.601000 0.500000 0.810000
vn 0.917120 0.120741 -0.379884
f 1009/1/265 1010/2/265 1011/3/265 1012/4/265
usemtl black
v 0.594446 0.525307 0.802222
v 0.584678 0.548889 0.802222
v 0.587469 0.550500 0.810000
v 0.597559 0.526141 0.810000
vn 0.854620 0.353995 -0.379884
f 1013/1/266 1014/2/266 1015/3/266 1016/4/266
usemtl black
v 0.584678 0.548889 0.802222
v 0.569140 0.569140 0.802222
v 0.571418 0.571418 0.810000
v 0.587469 0.550500 0.810000
vn 0.733879 0.563125 -0.379884
f 1017/1/267 1018/2/267 1019/3/267 1020/4/267
usemtl black
v 0.569140 0.569140 0.802222
v 0.548889 0.584678 0.802222
v 0.550500 0.587469 0.810000
v 0.571418 0.571418 0.810000
vn 0.563125 0.733879 -0.379884
f 1021/1/268 1022/2/268 1023/3/268 1024/4/268
usemtl black
v 0.548889 0.584678 0.802222
v 0.525307 0.594446 0.802222
v 0.526141 0.597559 0.810000
v 0.550500 0.587469 0.810000
vn 0.353995 0.854620 -0.379884
f 1025/1/269 1026/2/269 1027/3/269 1028/4/269
usemtl black
v 0.525307 0.594446 0.802222
v 0.500000 0.597778 0.802222
v 0.500000 0.601000 0.810000
v 0.526141 0.597559 0.810000
vn 0.120741 0.917120 -0.379884
f 1029/1/270 1030/2/270 1031/3/270 1032/4/270
usemtl black
v 0.500000 0.597778 0.802222
v 0.474693 0.594446 0.802222
v 0.473859 0.597559 0.810000
v 0.500000 0.601000 0.810000
vn -0.120741 0.917120 -0.379884
f 1033/1/271 1034/2/271 1035/3/271 1036/4/271
usemtl black
v 0.474693 0.594446 0.802222
v 0.451111 0.584678 0.802222
v 0.449500 0.587469 0.810000
v 0.473859 0.597559 0.810000
vn -0.353995 0.854620 -0.379884
f 1037/1/272 1038/2/272 1039/3/272 1040/4/272
usemtl black
v 0.451111 0.584678 0.802222
v 0.430860 0.569140 0.802222
v 0.428582 0.571418 0.810000
v 0.449500 0.587469 0.810000
vn -0.563125 0.733879 -0.379884
f 1041/1/273 1042/2/273 1043/3/273 1044/4/273
usemtl black
v 0.430860 0.569140 0.802222
v 0.415322 0.548889 0.802222
v 0.412531 0.550500 0.810000
v 0.428582 0.571418 0.810000
vn -0.733879 0.563125 -0.379884
f 1045/1/274 1046/2/274 1047/3/274 1048/4/274
usemtl black
v 0.415322 0.548889 0.802222
v 0.405554 0.525307 0.802222
v 0.402441 0.526141 0.810000
v 0.412531 0.550500 0.810000
vn -0.854620 0.353995 -0.379884
f 1049/1/275 1050/2/275 1051/3/275 1052/4/275
usemtl black
v 0.405554 0.525307 0.802222
v 0.402222 0.500000 0.802222
v 0.399000 0.500000 0.810000
v 0.402441 0.526141 0.810000
vn -0.917120 0.120741 -0.379884
f 1053/1/276 1054/2/276 1055/3/276 1056/4/276
usemtl black
v 0.402222 0.500000 0.802222
v 0.405554 0.474693 0.802222
v 0.402441 0.473859 0.810000
v 0.399000 0.500000 0.810000
vn -0.917120 -0.120741 -0.379884
f 1057/1/277 1058/2/277 1059/3/277 1060/4/277
usemtl black
v 0.405554 0.474693 0.802222
v 0.415322 0.451111 0.802222
v 0.412531 0.449500 0.810000
v 0.402441 0.473859 0.810000
vn -0.854620 -0.353995 -0.379884
f 1061/1/278 1062/2/278 1063/3/278 1064/4/278
usemtl black
v 0.415322 0.451111 0.802222
v 0.430860 0.430860 0.802222
v 0.428582 0.428582 0.810000
v 0.412531 0.449500 0.810000
vn -0.733879 -0.563125 -0.379884
f 1065/1/279 1066/2/279 1067/3/279 1068/4/279
usemtl black
v 0.430860 0.430860 0.802222
v 0.451111 0.415322 0.802222
v 0.449500 0.412531 0.810000
v 0.428582 0.428582 0.810000
vn -0.563125 -0.733879 -0.379884
f 1069/1/280 1070/2/280 1071/3/280 1072/4/280
usemtl black
v 0.451111 0.415322 0.802222
v 0.474693 0.405554 0.802222
v 0.473859 0.402441 0.810000
v 0.449500 0.412531 0.810000
vn -0.353995 -0.854620 -0.379884
f 1073/1/281 1074/2/281 1075/3/281 1076/4/281
usemtl black
v 0.474693 0.405554 0.802222
v 0.500000 0.402222 0.802222
v 0.500000 0.399000 0.810000
v 0.473859 0.402441 0.810000
vn -0.120741 -0.917120 -0.379884
f 1077/1/282 1078/2/282 1079/3/282 1080/4/282
usemtl black
v 0.500000 0.402222 0.802222
v 0.525307 0.405554 0.802222
v 0.526141 0.402441 0.810000
v 0.500000 0.399000 0.810000
vn 0.120741 -0.917120 -0.379884
f 1081/1/283 1082/2/283 1083/3/283 1084/4/283
usemtl black
v 0.525307 0.405554 0.802222
v 0.548889 0.415322 0.802222
v 0.550500 0.412531 0.810000
v 0.526141 0.402441 0.810000
vn 0.353995 -0.854620 -0.379884
f 1085/1/284 1086/2/284 1087/3/284 1088/4/284
usemtl black
v 0.548889 0.415322 0.802222
v 0.569140 0.430860 0.802222
v 0.571418 0.428582 0.810000
v 0.550500 0.412531 0.810000
vn 0.563125 -0.733879 -0.379884
f 1089/1/285 1090/2/285 1091/3/285 1092/4/285
usemtl black
v 0.569140 0.430860 0.802222
v 0.584678 0.451111 0.802222
v 0.587469 0.449500 0.810000
v 0.571418 0.428582 0.810000
vn 0.733879 -0.563125 -0.379884
f 1093/1/286 1094/2/286 1095/3/286 1096/4/286
usemtl black
v 0.584678 0.451111 0.802222
v 0.594446 0.474693 0.802222
v 0.597559 0.473859 0.810000
v 0.587469 0.449500 0.810000
vn 0.854620 -0.353995 -0.379884
f 1097/1/287 1098/2/287 1099/3/287 1100/4/287
usemtl black
v 0.594446 0.474693 0.802222
v 0.597778 0.500000 0.802222
v 0.601000 0.500000 0.810000
v 0.597559 0.473859 0.810000
vn 0.917120 -0.120741 -0.379884
f 1101/1/288 1102/2/288 1103/3/288 1104/4/288
usemtl white
v 0.574266 0.510466 0.857000
v 0.600353 0.527926 0.861333
v 0.603732 0.490491 0.817333
v 0.574266 0.489534 0.813000
vn 0.069844 0.762422 -0.643300
f 1105/1/289 1106/2/289 1107/3/289 1108/4/289
usemtl white
v 0.574266 0.489534 0.827000
v 0.603732 0.490491 0.831333
v 0.600353 0.527926 0.875333
v 0.574266 0.510466 0.871000
vn -0.069844 -0.762422 0.643300
f 1109/1/290 1110/2/290 1111/3/290 1112/4/290
usemtl silver
v 0.574266 0.489534 0.827000
v 0.603732 0.490491 0.831333
v 0.603732 0.490491 0.817333
v 0.574266 0.489534 0.813000
vn -0.032462 0.999473 -0.000000
f 1113/1/291 1114/2/291 1115/3/291 1116/4/291
usemtl silver
v 0.574266 0.510466 0.857000
v 0.600353 0.527926 0.861333
v 0.600353 0.527926 0.875333
v 0.574266 0.510466 0.871000
vn 0.556219 -0.831036 0.000000
f 1117/1/292 1118/2/292 1119/3/292 1120/4/292
usemtl white
v 0.600353 0.527926 0.861333
v 0.622808 0.551922 0.865667
v 0.633227 0.494668 0.821667
v 0.603732 0.490491 0.817333
vn 0.029334 0.612435 -0.789976
f 1121/1/293 1122/2/293 1123/3/293 1124/4/293
usemtl white
v 0.603732 0.490491 0.831333
v 0.633227 0.494668 0.835667
v 0.622808 0.551922 0.879667
v 0.600353 0.527926 0.875333
vn -0.029334 -0.612435 0.789976
f 1125/1/294 1126/2/294 1127/3/294 1128/4/294
usemtl silver
v 0.603732 0.490491 0.831333
v 0.633227 0.494668 0.835667
v 0.633227 0.494668 0.821667
v 0.603732 0.490491 0.817333
vn -0.140213 0.990121 -0.000000
f 1129/1/295 1130/2/295 1131/3/295 1132/4/295
usemtl silver
v 0.600353 0.527926 0.861333
v 0.622808 0.551922 0.865667
v 0.622808 0.551922 0.879667
v 0.600353 0.527926 0.875333
vn 0.730173 -0.683263 0.000000
f 1133/1/296 1134/2/296 1135/3/296 1136/4/296
usemtl white
v 0.622808 0.551922 0.865667
v 0.640767 0.581185 0.870000
v 0.662477 0.502740 0.826000
v 0.633227 0.494668 0.821667
vn -0.005386 0.488062 -0.872793
f 1137/1/297 1138/2/297 1139/3/297 1140/4/297
usemtl white
v 0.633227 0.494668 0.835667
v 0.662477 0.502740 0.840000
v 0.640767 0.581185 0.884000
v 0.622808 0.551922 0.879667
vn 0.005386 -0.488062 0.872793
f 1141/1/298 1142/2/298 1143/3/298 1144/4/298
usemtl silver
v 0.633227 0.494668 0.835667
v 0.662477 0.502740 0.840000
v 0.662477 0.502740 0.826000
v 0.633227 0.494668 0.821667
vn -0.266020 0.963967 -0.000000
f 1145/1/299 1146/2/299 1147/3/299 1148/4/299
usemtl silver
v 0.622808 0.551922 0.865667
v 0.640767 0.581185 0.870000
v 0.640767 0.581185 0.884000
v 0.622808 0.551922 0.879667
vn 0.852298 -0.523057 0.000000
f 1149/1/300 1150/2/300 1151/3/300 1152/4/300
usemtl white
v 0.640767 0.581185 0.870000
v 0.653899 0.614242 0.874333
v 0.691031 0.515591 0.830333
v 0.662477 0.502740 0.826000
vn -0.038445 0.394933 -0.917905
f 1153/1/301 1154/2/301 1155/3/301 1156/4/301
usemtl white
v 0.662477 0.502740 0.840000
v 0.691031 0.515591 0.844333
v 0.653899 0.614242 0.888333
v 0.640767 0.581185 0.884000
vn 0.038445 -0.394933 0.917905
f 1157/1/302 1158/2/302 1159/3/302 1160/4/302
usemtl silver
v 0.662477 0.502740 0.840000
v 0.691031 0.515591 0.844333
v 0.691031 0.515591 0.830333
v 0.662477 0.502740 0.826000
vn -0.410409 0.911902 -0.000000
f 1161/1/303 1162/2/303 1163/3/303 1164/4/303
usemtl silver
v 0.640767 0.581185 0.870000
v 0.653899 0.614242 0.874333
v 0.653899 0.614242 0.888333
v 0.640767 0.581185 0.884000
vn 0.929347 -0.369208 0.000000
f 1165/1/304 1166/2/304 1167/3/304 1168/4/304
usemtl white
v 0.653899 0.614242 0.874333
v 0.662400 0.649645 0.878667
v 0.718170 0.534191 0.834667
v 0.691031 0.515591 0.830333
vn -0.071926 0.324669 -0.943089
f 1169/1/305 1170/2/305 1171/3/305 1172/4/305
usemtl white
v 0.691031 0.515591 0.844333
v 0.718170 0.534191 0.848667
v 0.662400 0.649645 0.892667
v 0.653899 0.614242 0.888333
vn 0.071926 -0.324669 0.943089
f 1173/1/306 1174/2/306 1175/3/306 1176/4/306
usemtl silver
v 0.691031 0.515591 0.844333
v 0.718170 0.534191 0.848667
v 0.718170 0.534191 0.834667
v 0.691031 0.515591 0.830333
vn -0.565321 0.824871 -0.000000
f 1177/1/307 1178/2/307 1179/3/307 1180/4/307
usemtl silver
v 0.653899 0.614242 0.874333
v 0.662400 0.649645 0.878667
v 0.662400 0.649645 0.892667
v 0.653899 0.614242 0.888333
vn 0.972366 -0.233461 0.000000
f 1181/1/308 1182/2/308 1183/3/308 1184/4/308
usemtl white
v 0.662400 0.649645 0.878667
v 0.666866 0.686161 0.883000
v 0.742834 0.559426 0.839000
v 0.718170 0.534191 0.834667
vn -0.106531 0.268521 -0.957365
f 1185/1/309 1186/2/309 1187/3/309 1188/4/309
usemtl white
v 0.718170 0.534191 0.848667
v 0.742834 0.559426 0.853000
v 0.666866 0.686161 0.897000
v 0.662400 0.649645 0.892667
vn 0.106531 -0.268521 0.957365
f 1189/1/310 1190/2/310 1191/3/310 1192/4/310
usemtl silver
v 0.718170 0.534191 0.848667
v 0.742834 0.559426 0.853000
v 0.742834 0.559426 0.839000
v 0.718170 0.534191 0.834667
vn -0.715148 0.698973 -0.000000
f 1193/1/311 1194/2/311 1195/3/311 1196/4/311
usemtl silver
v 0.662400 0.649645 0.878667
v 0.666866 0.686161 0.883000
v 0.666866 0.686161 0.897000
v 0.662400 0.649645 0.892667
vn 0.992603 -0.121404 0.000000
f 1197/1/312 1198/2/312 1199/3/312 1200/4/312
usemtl white
v 0.666866 0.686161 0.883000
v 0.668113 0.722872 0.887333
v 0.763606 0.591901 0.843333
v 0.742834 0.559426 0.839000
vn -0.142774 0.220085 -0.964976
f 1201/1/313 1202/2/313 1203/3/313 1204/4/313
usemtl white
v 0.742834 0.559426 0.853000
v 0.763606 0.591901 0.857333
v 0.668113 0.722872 0.901333
v 0.666866 0.686161 0.897000
vn 0.142774 -0.220085 0.964976
f 1205/1/314 1206/2/314 1207/3/314 1208/4/314
usemtl silver
v 0.742834 0.559426 0.853000
v 0.763606 0.591901 0.857333
v 0.763606 0.591901 0.843333
v 0.742834 0.559426 0.839000
vn -0.842413 0.538832 -0.000000
f 1209/1/315 1210/2/315 1211/3/315 1212/4/315
usemtl silver
v 0.666866 0.686161 0.883000
v 0.668113 0.722872 0.887333
v 0.668113 0.722872 0.901333
v 0.666866 0.686161 0.897000
vn 0.999423 -0.033953 0.000000
f 1213/1/316 1214/2/316 1215/3/316 1216/4/316
usemtl white
v 0.668113 0.722872 0.887333
v 0.666966 0.759214 0.891667
v 0.778776 0.631732 0.847667
v 0.763606 0.591901 0.843333
vn -0.181827 0.174530 -0.967718
f 1217/1/317 1218/2/317 1219/3/317 1220/4/317
usemtl white
v 0.763606 0.591901 0.857333
v 0.778776 0.631732 0.861667
v 0.666966 0.759214 0.905667
v 0.668113 0.722872 0.901333
vn 0.181827 -0.174530 0.967718
f 1221/1/318 1222/2/318 1223/3/318 1224/4/318
usemtl silver
v 0.763606 0.591901 0.857333
v 0.778776 0.631732 0.861667
v 0.778776 0.631732 0.847667
v 0.763606 0.591901 0.843333
vn -0.934519 0.355914 -0.000000
f 1225/1/319 1226/2/319 1227/3/319 1228/4/319
usemtl silver
v 0.668113 0.722872 0.887333
v 0.666966 0.759214 0.891667
v 0.666966 0.759214 0.905667
v 0.668113 0.722872 0.901333
vn 0.999502 0.031554 0.000000
f 1229/1/320 1230/2/320 1231/3/320 1232/4/320
usemtl white
v 0.666966 0.759214 0.891667
v 0.664070 0.794936 0.896000
v 0.786510 0.678377 0.852000
v 0.778776 0.631732 0.847667
vn -0.225989 0.127188 -0.965791
f 1233/1/321 1234/2/321 1235/3/321 1236/4/321
usemtl white
v 0.778776 0.631732 0.861667
v 0.786510 0.678377 0.866000
v 0.664070 0.794936 0.910000
v 0.666966 0.759214 0.905667
vn 0.225989 -0.127188 0.965791
f 1237/1/322 1238/2/322 1239/3/322 1240/4/322
usemtl silver
v 0.778776 0.631732 0.861667
v 0.786510 0.678377 0.866000
v 0.786510 0.678377 0.852000
v 0.778776 0.631732 0.847667
vn -0.986534 0.163557 -0.000000
f 1241/1/323 1242/2/323 1243/3/323 1244/4/323
usemtl silver
v 0.666966 0.759214 0.891667
v 0.664070 0.794936 0.896000
v 0.664070 0.794936 0.910000
v 0.666966 0.759214 0.905667
vn 0.996731 0.080797 0.000000
f 1245/1/324 1246/2/324 1247/3/324 1248/4/324
usemtl white
v 0.664070 0.794936 0.896000
v 0.659750 0.830037 0.900333
v 0.785110 0.730557 0.856333
v 0.786510 0.678377 0.852000
vn -0.278939 0.072043 -0.957603
f 1249/1/325 1250/2/325 1251/3/325 1252/4/325
usemtl white
v 0.786510 0.678377 0.866000
v 0.785110 0.730557 0.870333
v 0.659750 0.830037 0.914333
v 0.664070 0.794936 0.910000
vn 0.278939 -0.072043 0.957603
f 1253/1/326 1254/2/326 1255/3/326 1256/4/326
usemtl silver
v 0.786510 0.678377 0.866000
v 0.785110 0.730557 0.870333
v 0.785110 0.730557 0.856333
v 0.786510 0.678377 0.852000
vn -0.999640 -0.026813 -0.000000
f 1257/1/327 1258/2/327 1259/3/327 1260/4/327
usemtl silver
v 0.664070 0.794936 0.896000
v 0.659750 0.830037 0.900333
v 0.659750 0.830037 0.914333
v 0.664070 0.794936 0.910000
vn 0.992512 0.122144 0.000000
f 1261/1/328 1262/2/328 1263/3/328 1264/4/328
usemtl white
v 0.659750 0.830037 0.900333
v 0.653921 0.864681 0.904667
v 0.773331 0.786312 0.860667
v 0.785110 0.730557 0.856333
vn -0.345832 -0.000138 -0.938296
f 1265/1/329 1266/2/329 1267/3/329 1268/4/329
usemtl white
v 0.785110 0.730557 0.870333
v 0.773331 0.786312 0.874667
v 0.653921 0.864681 0.918667
v 0.659750 0.830037 0.914333
vn 0.345832 0.000138 0.938296
f 1269/1/330 1270/2/330 1271/3/330 1272/4/330
usemtl silver
v 0.785110 0.730557 0.870333
v 0.773331 0.786312 0.874667
v 0.773331 0.786312 0.860667
v 0.785110 0.730557 0.856333
vn -0.978403 -0.206709 -0.000000
f 1273/1/331 1274/2/331 1275/3/331 1276/4/331
usemtl silver
v 0.659750 0.830037 0.900333
v 0.653921 0.864681 0.904667
v 0.653921 0.864681 0.918667
v 0.659750 0.830037 0.914333
vn 0.986136 0.165937 0.000000
f 1277/1/332 1278/2/332 1279/3/332 1280/4/332
usemtl white
v 0.653921 0.864681 0.904667
v 0.646049 0.899117 0.909000
v 0.750660 0.843212 0.865000
v 0.773331 0.786312 0.860667
vn -0.432336 -0.104043 -0.895690
f 1281/1/333 1282/2/333 1283/3/333 1284/4/333
usemtl white
v 0.773331 0.786312 0.874667
v 0.750660 0.843212 0.879000
v 0.646049 0.899117 0.923000
v 0.653921 0.864681 0.918667
vn 0.432336 0.104043 0.895690
f 1285/1/334 1286/2/334 1287/3/334 1288/4/334
usemtl silver
v 0.773331 0.786312 0.874667
v 0.750660 0.843212 0.879000
v 0.750660 0.843212 0.865000
v 0.773331 0.786312 0.860667
vn -0.928979 -0.370132 -0.000000
f 1289/1/335 1290/2/335 1291/3/335 1292/4/335
usemtl silver
v 0.653921 0.864681 0.904667
v 0.646049 0.899117 0.909000
v 0.646049 0.899117 0.923000
v 0.653921 0.864681 0.918667
vn 0.974858 0.222828 0.000000
f 1293/1/336 1294/2/336 1295/3/336 1296/4/336
usemtl silver
v 0.574266 0.489534 0.827000
v 0.574266 0.510466 0.871000
v 0.574266 0.510466 0.857000
v 0.574266 0.489534 0.813000
vn -1.000000 -0.000000 -0.000000
f 1297/1/337 1298/2/337 1299/3/337 1300/4/337
usemtl silver
v 0.750660 0.843212 0.865000
v 0.646049 0.899117 0.909000
v 0.646049 0.899117 0.923000
v 0.750660 0.843212 0.879000
vn 0.471328 0.881958 0.000000
f 1301/1/338 1302/2/338 1303/3/338 1304/4/338
usemtl black
v 0.489534 0.574266 0.857000
v 0.472074 0.600353 0.861333
v 0.509509 0.603732 0.817333
v 0.510466 0.574266 0.813000
vn -0.762422 0.069844 -0.643300
f 1305/1/339 1306/2/339 1307/3/339 1308/4/339
usemtl black
v 0.510466 0.574266 0.827000
v 0.509509 0.603732 0.831333
v 0.472074 0.600353 0.875333
v 0.489534 0.574266 0.871000
vn 0.762422 -0.069844 0.643300
f 1309/1/340 1310/2/340 1311/3/340 1312/4/340
usemtl silver
v 0.510466 0.574266 0.827000
v 0.509509 0.603732 0.831333
v 0.509509 0.603732 0.817333
v 0.510466 0.574266 0.813000
vn -0.999473 -0.032462 -0.000000
f 1313/1/341 1314/2/341 1315/3/341 1316/4/341
usemtl silver
v 0.489534 0.574266 0.857000
v 0.472074 0.600353 0.861333
v 0.472074 0.600353 0.875333
v 0.489534 0.574266 0.871000
vn 0.831036 0.556219 0.000000
f 1317/1/342 1318/2/342 1319/3/342 1320/4/342
usemtl black
v 0.472074 0.600353 0.861333
v 0.448078 0.622808 0.865667
v 0.505332 0.633227 0.821667
v 0.509509 0.603732 0.817333
vn -0.612435 0.029334 -0.789976
f 1321/1/343 1322/2/343 1323/3/343 1324/4/343
usemtl black
v 0.509509 0.603732 0.831333
v 0.505332 0.633227 0.835667
v 0.448078 0.622808 0.879667
v 0.472074 0.600353 0.875333
vn 0.612435 -0.029334 0.789976
f 1325/1/344 1326/2/344 1327/3/344 1328/4/344
usemtl silver
v 0.509509 0.603732 0.831333
v 0.505332 0.633227 0.835667
v 0.505332 0.633227 0.821667
v 0.509509 0.603732 0.817333
vn -0.990121 -0.140213 -0.000000
f 1329/1/345 1330/2/345 1331/3/345 1332/4/345
usemtl silver
v 0.472074 0.600353 0.861333
v 0.448078 0.622808 0.865667
v 0.448078 0.622808 0.879667
v 0.472074 0.600353 0.875333
vn 0.683263 0.730173 0.000000
f 1333/1/346 1334/2/346 1335/3/346 1336/4/346
usemtl black
v 0.448078 0.622808 0.865667
v 0.418815 0.640767 0.870000
v 0.497260 0.662477 0.826000
v 0.505332 0.633227 0.821667
vn -0.488062 -0.005386 -0.872793
f 1337/1/347 1338/2/347 1339/3/347 1340/4/347
usemtl black
v 0.505332 0.633227 0.835667
v 0.497260 0.662477 0.840000
v 0.418815 0.640767 0.884000
v 0.448078 0.622808 0.879667
vn 0.488062 0.005386 0.872793
f 1341/1/348 1342/2/348 1343/3/348 1344/4/348
usemtl silver
v 0.505332 0.633227 0.835667
v 0.497260 0.662477 0.840000
v 0.497260 0.662477 0.826000
v 0.505332 0.633227 0.821667
vn -0.963967 -0.266020 -0.000000
f 1345/1/349 1346/2/349 1347/3/349 1348/4/349
usemtl silver
v 0.448078 0.622808 0.865667
v 0.418815 0.640767 0.870000
v 0.418815 0.640767 0.884000
v 0.448078 0.622808 0.879667
vn 0.523057 0.852298 0.000000
f 1349/1/350 1350/2/350 1351/3/350 1352/4/350
usemtl black
v 0.418815 0.640767 0.870000
v 0.385758 0.653899 0.874333
v 0.484409 0.691031 0.830333
v 0.497260 0.662477 0.826000
vn -0.394933 -0.038445 -0.917905
f 1353/1/351 1354/2/351 1355/3/351 1356/4/351
usemtl black
v 0.497260 0.662477 0.840000
v 0.484409 0.691031 0.844333
v 0.385758 0.653899 0.888333
v 0.418815 0.640767 0.884000
vn 0.394933 0.038445 0.917905
f 1357/1/352 1358/2/352 1359/3/352 1360/4/352
usemtl silver
v 0.497260 0.662477 0.840000
v 0.484409 0.691031 0.844333
v 0.484409 0.691031 0.830333
v 0.497260 0.662477 0.826000
vn -0.911902 -0.410409 -0.000000
f 1361/1/353 1362/2/353 1363/3/353 1364/4/353
usemtl silver
v 0.418815 0.640767 0.870000
v 0.385758 0.653899 0.874333
v 0.385758 0.653899 0.888333
v 0.418815 0.640767 0.884000
vn 0.369208 0.929347 0.000000
f 1365/1/354 1366/2/354 1367/3/354 1368/4/354
usemtl black
v 0.385758 0.653899 0.874333
v 0.350355 0.662400 0.878667
v 0.465809 0.718170 0.834667
v 0.484409 0.691031 0.830333
vn -0.324669 -0.071926 -0.943089
f 1369/1/355 1370/2/355 1371/3/355 1372/4/355
usemtl black
v 0.484409 0.691031 0.844333
v 0.465809 0.718170 0.848667
v 0.350355 0.662400 0.892667
v 0.385758 0.653899 0.888333
vn 0.324669 0.071926 0.943089
f 1373/1/356 1374/2/356 1375/3/356 1376/4/356
usemtl silver
v 0.484409 0.691031 0.844333
v 0.465809 0.718170 0.848667
v 0.465809 0.718170 0.834667
v 0.484409 0.691031 0.830333
vn -0.824871 -0.565321 -0.000000
f 1377/1/357 1378/2/357 1379/3/357 1380/4/357
usemtl silver
v 0.385758 0.653899 0.874333
v 0.350355 0.662400 0.878667
v 0.350355 0.662400 0.892667
v 0.385758 0.653899 0.888333
vn 0.233461 0.972366 0.000000
f 1381/1/358 1382/2/358 1383/3/358 1384/4/358
usemtl black
v 0.350355 0.662400 0.878667
v 0.313839 0.666866 0.883000
v 0.440574 0.742834 0.839000
v 0.465809 0.718170 0.834667
vn -0.268521 -0.106531 -0.957365
f 1385/1/359 1386/2/359 1387/3/359 1388/4/359
usemtl black
v 0.465809 0.718170 0.848667
v 0.440574 0.742834 0.853000
v 0.313839 0.666866 0.897000
v 0.350355 0.662400 0.892667
vn 0.268521 0.106531 0.957365
f 1389/1/360 1390/2/360 1391/3/360 1392/4/360
usemtl silver
v 0.465809 0.718170 0.848667
v 0.440574 0.742834 0.853000
v 0.440574 0.742834 0.839000
v 0.465809 0.718170 0.834667
vn -0.698973 -0.715148 -0.000000
f 1393/1/361 1394/2/361 1395/3/361 1396/4/361
usemtl silver
v 0.350355 0.662400 0.878667
v 0.313839 0.666866 0.883000
v 0.313839 0.666866 0.897000
v 0.350355 0.662400 0.892667
vn 0.121404 0.992603 0.000000
f 1397/1/362 1398/2/362 1399/3/362 1400/4/362
usemtl black
v 0.313839 0.666866 0.883000
v 0.277128 0.668113 0.887333
v 0.408099 0.763606 0.843333
v 0.440574 0.742834 0.839000
vn -0.220085 -0.142774 -0.964976
f 1401/1/363 1402/2/363 1403/3/363 1404/4/363
usemtl black
v 0.440574 0.742834 0.853000
v 0.408099 0.763606 0.857333
v 0.277128 0.668113 0.901333
v 0.313839 0.666866 0.897000
vn 0.220085 0.142774 0.964976
f 1405/1/364 1406/2/364 1407/3/364 1408/4/364
usemtl silver
v 0.440574 0.742834 0.853000
v 0.408099 0.763606 0.857333
v 0.408099 0.763606 0.843333
v 0.440574 0.742834 0.839000
vn -0.538832 -0.842413 -0.000000
f 1409/1/365 1410/2/365 1411/3/365 1412/4/365
usemtl silver
v 0.313839 0.666866 0.883000
v 0.277128 0.668113 0.887333
v 0.277128 0.668113 0.901333
v 0.313839 0.666866 0.897000
vn 0.033953 0.999423 0.000000
f 1413/1/366 1414/2/366 1415/3/366 1416/4/366
usemtl black
v 0.277128 0.668113 0.887333
v 0.240786 0.666966 0.891667
v 0.368268 0.778776 0.847667
v 0.408099 0.763606 0.843333
vn -0.174530 -0.181827 -0.967718
f 1417/1/367 1418/2/367 1419/3/367 1420/4/367
usemtl black
v 0.408099 0.763606 0.857333
v 0.368268 0.778776 0.861667
v 0.240786 0.666966 0.905667
v 0.277128 0.668113 0.901333
vn 0.174530 0.181827 0.967718
f 1421/1/368 1422/2/368 1423/3/368 1424/4/368
usemtl silver
v 0.408099 0.763606 0.857333
v 0.368268 0.778776 0.861667
v 0.368268 0.778776 0.847667
v 0.408099 0.763606 0.843333
vn -0.355914 -0.934519 -0.000000
f 1425/1/369 1426/2/369 1427/3/369 1428/4/369
usemtl silver
v 0.277128 0.668113 0.887333
v 0.240786 0.666966 0.891667
v 0.240786 0.666966 0.905667
v 0.277128 0.668113 0.901333
vn -0.031554 0.999502 0.000000
f 1429/1/370 1430/2/370 1431/3/370 1432/4/370
usemtl black
v 0.240786 0.666966 0.891667
v 0.205064 0.664070 0.896000
v 0.321623 0.786510 0.852000
v 0.368268 0.778776 0.847667
vn -0.127188 -0.225989 -0.965791
f 1433/1/371 1434/2/371 1435/3/371 1436/4/371
usemtl black
v 0.368268 0.778776 0.861667
v 0.321623 0.786510 0.866000
v 0.205064 0.664070 0.910000
v 0.240786 0.666966 0.905667
vn 0.127188 0.225989 0.965791
f 1437/1/372 1438/2/372 1439/3/372 1440/4/372
usemtl silver
v 0.368268 0.778776 0.861667
v 0.321623 0.786510 0.866000
v 0.321623 0.786510 0.852000
v 0.368268 0.778776 0.847667
vn -0.163557 -0.986534 -0.000000
f 1441/1/373 1442/2/373 1443/3/373 1444/4/373
usemtl silver
v 0.240786 0.666966 0.891667
v 0.205064 0.664070 0.896000
v 0.205064 0.664070 0.910000
v 0.240786 0.666966 0.905667
vn -0.080797 0.996731 0.000000
f 1445/1/374 1446/2/374 1447/3/374 1448/4/374
usemtl black
v 0.205064 0.664070 0.896000
v 0.169963 0.659750 0.900333
v 0.269443 0.785110 0.856333
v 0.321623 0.786510 0.852000
vn -0.072043 -0.278939 -0.957603
f 1449/1/375 1450/2/375 1451/3/375 1452/4/375
usemtl black
v 0.321623 0.786510 0.866000
v 0.269443 0.785110 0.870333
v 0.169963 0.659750 0.914333
v 0.205064 0.664070 0.910000
vn 0.072043 0.278939 0.957603
f 1453/1/376 1454/2/376 1455/3/376 1456/4/376
usemtl silver
v 0.321623 0.786510 0.866000
v 0.269443 0.785110 0.870333
v 0.269443 0.785110 0.856333
v 0.321623 0.786510 0.852000
vn 0.026813 -0.999640 -0.000000
f 1457/1/377 1458/2/377 1459/3/377 1460/4/377
usemtl silver
v 0.205064 0.664070 0.896000
v 0.169963 0.659750 0.900333
v 0.169963 0.659750 0.914333
v 0.205064 0.664070 0.910000
vn -0.122144 0.992512 0.000000
f 1461/1/378 1462/2/378 1463/3/378 1464/4/378
usemtl black
v 0.169963 0.659750 0.900333
v 0.135319 0.653921 0.904667
v 0.213688 0.773331 0.860667
v 0.269443 0.785110 0.856333
vn 0.000138 -0.345832 -0.938296
f 1465/1/379 1466/2/379 1467/3/379 1468/4/379
usemtl black
v 0.269443 0.785110 0.870333
v 0.213688 0.773331 0.874667
v 0.135319 0.653921 0.918667
v 0.169963 0.659750 0.914333
vn -0.000138 0.345832 0.938296
f 1469/1/380 1470/2/380 1471/3/380 1472/4/380
usemtl silver
v 0.269443 0.785110 0.870333
v 0.213688 0.773331 0.874667
v 0.213688 0.773331 0.860667
v 0.269443 0.785110 0.856333
vn 0.206709 -0.978403 -0.000000
f 1473/1/381 1474/2/381 1475/3/381 1476/4/381
usemtl silver
v 0.169963 0.659750 0.900333
v 0.135319 0.653921 0.904667
v 0.135319 0.653921 0.918667
v 0.169963 0.659750 0.914333
vn -0.165937 0.986136 0.000000
f 1477/1/382 1478/2/382 1479/3/382 1480/4/382
usemtl black
v 0.135319 0.653921 0.904667
v 0.100883 0.646049 0.909000
v 0.156788 0.750660 0.865000
v 0.213688 0.773331 0.860667
vn 0.104043 -0.432336 -0.895690
f 1481/1/383 1482/2/383 1483/3/383 1484/4/383
usemtl black
v 0.213688 0.773331 0.874667
v 0.156788 0.750660 0.879000
v 0.100883 0.646049 0.923000
v 0.135319 0.653921 0.918667
vn -0.104043 0.432336 0.895690
f 1485/1/384 1486/2/384 1487/3/384 1488/4/384
usemtl silver
v 0.213688 0.773331 0.874667
v 0.156788 0.750660 0.879000
v 0.156788 0.750660 0.865000
v 0.213688 0.773331 0.860667
vn 0.370132 -0.928979 -0.000000
f 1489/1/385 1490/2/385 1491/3/385 1492/4/385
usemtl silver
v 0.135319 0.653921 0.904667
v 0.100883 0.646049 0.909000
v 0.100883 0.646049 0.923000
v 0.135319 0.653921 0.918667
vn -0.222828 0.974858 0.000000
f 1493/1/386 1494/2/386 1495/3/386 1496/4/386
usemtl silver
v 0.510466 0.574266 0.827000
v 0.489534 0.574266 0.871000
v 0.489534 0.574266 0.857000
v 0.510466 0.574266 0.813000
vn -0.000000 -1.000000 -0.000000
f 1497/1/387 1498/2/387 1499/3/387 1500/4/387
usemtl silver
v 0.156788 0.750660 0.865000
v 0.100883 0.646049 0.909000
v 0.100883 0.646049 0.923000
v 0.156788 0.750660 0.879000
vn -0.881958 0.471328 0.000000
f 1501/1/388 1502/2/388 1503/3/388 1504/4/388
usemtl white
v 0.425734 0.489534 0.857000
v 0.399647 0.472074 0.861333
v 0.396268 0.509509 0.817333
v 0.425734 0.510466 0.813000
vn -0.069844 -0.762422 -0.643300
f 1505/1/389 1506/2/389 1507/3/389 1508/4/389
usemtl white
v 0.425734 0.510466 0.827000
v 0.396268 0.509509 0.831333
v 0.399647 0.472074 0.875333
v 0.425734 0.489534 0.871000
vn 0.069844 0.762422 0.643300
f 1509/1/390 1510/2/390 1511/3/390 1512/4/390
usemtl silver
v 0.425734 0.510466 0.827000
v 0.396268 0.509509 0.831333
v 0.396268 0.509509 0.817333
v 0.425734 0.510466 0.813000
vn 0.032462 -0.999473 -0.000000
f 1513/1/391 1514/2/391 1515/3/391 1516/4/391
usemtl silver
v 0.425734 0.489534 0.857000
v 0.399647 0.472074 0.861333
v 0.399647 0.472074 0.875333
v 0.425734 0.489534 0.871000
vn -0.556219 0.831036 0.000000
f 1517/1/392 1518/2/392 1519/3/392 1520/4/392
usemtl white
v 0.399647 0.472074 0.861333
v 0.377192 0.448078 0.865667
v 0.366773 0.505332 0.821667
v 0.396268 0.509509 0.817333
vn -0.029334 -0.612435 -0.789976
f 1521/1/393 1522/2/393 1523/3/393 1524/4/393
usemtl white
v 0.396268 0.509509 0.831333
v 0.366773 0.505332 0.835667
v 0.377192 0.448078 0.879667
v 0.399647 0.472074 0.875333
vn 0.029334 0.612435 0.789976
f 1525/1/394 1526/2/394 1527/3/394 1528/4/394
usemtl silver
v 0.396268 0.509509 0.831333
v 0.366773 0.505332 0.835667
v 0.366773 0.505332 0.821667
v 0.396268 0.509509 0.817333
vn 0.140213 -0.990121 -0.000000
f 1529/1/395 1530/2/395 1531/3/395 1532/4/395
usemtl silver
v 0.399647 0.472074 0.861333
v 0.377192 0.448078 0.865667
v 0.377192 0.448078 0.879667
v 0.399647 0.472074 0.875333
vn -0.730173 0.683263 0.000000
f 1533/1/396 1534/2/396 1535/3/396 1536/4/396
usemtl white
v 0.377192 0.448078 0.865667
v 0.359233 0.418815 0.870000
v 0.337523 0.497260 0.826000
v 0.366773 0.505332 0.821667
vn 0.005386 -0.488062 -0.872793
f 1537/1/397 1538/2/397 1539/3/397 1540/4/397
usemtl white
v 0.366773 0.505332 0.835667
v 0.337523 0.497260 0.840000
v 0.359233 0.418815 0.884000
v 0.377192 0.448078 0.879667
vn -0.005386 0.488062 0.872793
f 1541/1/398 1542/2/398 1543/3/398 1544/4/398
usemtl silver
v 0.366773 0.505332 0.835667
v 0.337523 0.497260 0.840000
v 0.337523 0.497260 0.826000
v 0.366773 0.505332 0.821667
vn 0.266020 -0.963967 -0.000000
f 1545/1/399 1546/2/399 1547/3/399 1548/4/399
usemtl silver
v 0.377192 0.448078 0.865667
v 0.359233 0.418815 0.870000
v 0.359233 0.418815 0.884000
v 0.377192 0.448078 0.879667
vn -0.852298 0.523057 0.000000
f 1549/1/400 1550/2/400 1551/3/400 1552/4/400
usemtl white
v 0.359233 0.418815 0.870000
v 0.346101 0.385758 0.874333
v 0.308969 0.484409 0.830333
v 0.337523 0.497260 0.826000
vn 0.038445 -0.394933 -0.917905
f 1553/1/401 1554/2/401 1555/3/401 1556/4/401
usemtl white
v 0.337523 0.497260 0.840000
v 0.308969 0.484409 0.844333
v 0.346101 0.385758 0.888333
v 0.359233 0.418815 0.884000
vn -0.038445 0.394933 0.917905
f 1557/1/402 1558/2/402 1559/3/402 1560/4/402
usemtl silver
v 0.337523 0.497260 0.840000
v 0.308969 0.484409 0.844333
v 0.308969 0.484409 0.830333
v 0.337523 0.497260 0.826000
vn 0.410409 -0.911902 -0.000000
f 1561/1/403 1562/2/403 1563/3/403 1564/4/403
usemtl silver
v 0.359233 0.418815 0.870000
v 0.346101 0.385758 0.874333
v 0.346101 0.385758 0.888333
v 0.359233 0.418815 0.884000
vn -0.929347 0.369208 0.000000
f 1565/1/404 1566/2/404 1567/3/404 1568/4/404
usemtl white
v 0.346101 0.385758 0.874333
v 0.337600 0.350355 0.878667
v 0.281830 0.465809 0.834667
v 0.308969 0.484409 0.830333
vn 0.071926 -0.324669 -0.943089
f 1569/1/405 1570/2/405 1571/3/405 1572/4/405
usemtl white
v 0.308969 0.484409 0.844333
v 0.281830 0.465809 0.848667
v 0.337600 0.350355 0.892667
v 0.346101 0.385758 0.888333
vn -0.071926 0.324669 0.943089
f 1573/1/406 1574/2/406 1575/3/406 1576/4/406
usemtl silver
v 0.308969 0.484409 0.844333
v 0.281830 0.465809 0.848667
v 0.281830 0.465809 0.834667
v 0.308969 0.484409 0.830333
vn 0.565321 -0.824871 -0.000000
f 1577/1/407 1578/2/407 1579/3/407 1580/4/407
usemtl silver
v 0.346101 0.385758 0.874333
v 0.337600 0.350355 0.878667
v 0.337600 0.350355 0.892667
v 0.346101 0.385758 0.888333
vn -0.972366 0.233461 0.000000
f 1581/1/408 1582/2/408 1583/3/408 1584/4/408
usemtl white
v 0.337600 0.350355 0.878667
v 0.333134 0.313839 0.883000
v 0.257166 0.440574 0.839000
v 0.281830 0.465809 0.834667
vn 0.106531 -0.268521 -0.957365
f 1585/1/409 1586/2/409 1587/3/409 1588/4/409
usemtl white
v 0.281830 0.465809 0.848667
v 0.257166 0.440574 0.853000
v 0.333134 0.313839 0.897000
v 0.337600 0.350355 0.892667
vn -0.106531 0.268521 0.957365
f 1589/1/410 1590/2/410 1591/3/410 1592/4/410
usemtl silver
v 0.281830 0.465809 0.848667
v 0.257166 0.440574 0.853000
v 0.257166 0.440574 0.839000
v 0.281830 0.465809 0.834667
vn 0.715148 -0.698973 -0.000000
f 1593/1/411 1594/2/411 1595/3/411 1596/4/411
usemtl silver
v 0.337600 0.350355 0.878667
v 0.333134 0.313839 0.883000
v 0.333134 0.313839 0.897000
v 0.337600 0.350355 0.892667
vn -0.992603 0.121404 0.000000
f 1597/1/412 1598/2/412 1599/3/412 1600/4/412
usemtl white
v 0.333134 0.313839 0.883000
v 0.331887 0.277128 0.887333
v 0.236394 0.408099 0.843333
v 0.257166 0.440574 0.839000
vn 0.142774 -0.220085 -0.964976
f 1601/1/413 1602/2/413 1603/3/413 1604/4/413
usemtl white
v 0.257166 0.440574 0.853000
v 0.236394 0.408099 0.857333
v 0.331887 0.277128 0.901333
v 0.333134 0.313839 0.897000
vn -0.142774 0.220085 0.964976
f 1605/1/414 1606/2/414 1607/3/414 1608/4/414
usemtl silver
v 0.257166 0.440574 0.853000
v 0.236394 0.408099 0.857333
v 0.236394 0.408099 0.843333
v 0.257166 0.440574 0.839000
vn 0.842413 -0.538832 -0.000000
f 1609/1/415 1610/2/415 1611/3/415 1612/4/415
usemtl silver
v 0.333134 0.313839 0.883000
v 0.331887 0.277128 0.887333
v 0.331887 0.277128 0.901333
v 0.333134 0.313839 0.897000
vn -0.999423 0.033953 0.000000
f 1613/1/416 1614/2/416 1615/3/416 1616/4/416
usemtl white
v 0.331887 0.277128 0.887333
v 0.333034 0.240786 0.891667
v 0.221224 0.368268 0.847667
v 0.236394 0.408099 0.843333
vn 0.181827 -0.174530 -0.967718
f 1617/1/417 1618/2/417 1619/3/417 1620/4/417
usemtl white
v 0.236394 0.408099 0.857333
v 0.221224 0.368268 0.861667
v 0.333034 0.240786 0.905667
v 0.331887 0.277128 0.901333
vn -0.181827 0.174530 0.967718
f 1621/1/418 1622/2/418 1623/3/418 1624/4/418
usemtl silver
v 0.236394 0.408099 0.857333
v 0.221224 0.368268 0.861667
v 0.221224 0.368268 0.847667
v 0.236394 0.408099 0.843333
vn 0.934519 -0.355914 -0.000000
f 1625/1/419 1626/2/419 1627/3/419 1628/4/419
usemtl silver
v 0.331887 0.277128 0.887333
v 0.333034 0.240786 0.891667
v 0.333034 0.240786 0.905667
v 0.331887 0.277128 0.901333
vn -0.999502 -0.031554 0.000000
f 1629/1/420 1630/2/420 1631/3/420 1632/4/420
usemtl white
v 0.333034 0.240786 0.891667
v 0.335930 0.205064 0.896000
v 0.213490 0.321623 0.852000
v 0.221224 0.368268 0.847667
vn 0.225989 -0.127188 -0.965791
f 1633/1/421 1634/2/421 1635/3/421 1636/4/421
usemtl white
v 0.221224 0.368268 0.861667
v 0.213490 0.321623 0.866000
v 0.335930 0.205064 0.910000
v 0.333034 0.240786 0.905667
vn -0.225989 0.127188 0.965791
f 1637/1/422 1638/2/422 1639/3/422 1640/4/422
usemtl silver
v 0.221224 0.368268 0.861667
v 0.213490 0.321623 0.866000
v 0.213490 0.321623 0.852000
v 0.221224 0.368268 0.847667
vn 0.986534 -0.163557 -0.000000
f 1641/1/423 1642/2/423 1643/3/423 1644/4/423
usemtl silver
v 0.333034 0.240786 0.891667
v 0.335930 0.205064 0.896000
v 0.335930 0.205064 0.910000
v 0.333034 0.240786 0.905667
vn -0.996731 -0.080797 0.000000
f 1645/1/424 1646/2/424 1647/3/424 1648/4/424
usemtl white
v 0.335930 0.205064 0.896000
v 0.340250 0.169963 0.900333
v 0.214890 0.269443 0.856333
v 0.213490 0.321623 0.852000
vn 0.278939 -0.072043 -0.957603
f 1649/1/425 1650/2/425 1651/3/425 1652/4/425
usemtl white
v 0.213490 0.321623 0.866000
v 0.214890 0.269443 0.870333
v 0.340250 0.169963 0.914333
v 0.335930 0.205064 0.910000
vn -0.278939 0.072043 0.957603
f 1653/1/426 1654/2/426 1655/3/426 1656/4/426
usemtl silver
v 0.213490 0.321623 0.866000
v 0.214890 0.269443 0.870333
v 0.214890 0.269443 0.856333
v 0.213490 0.321623 0.852000
vn 0.999640 0.026813 -0.000000
f 1657/1/427 1658/2/427 1659/3/427 1660/4/427
usemtl silver
v 0.335930 0.205064 0.896000
v 0.340250 0.169963 0.900333
v 0.340250 0.169963 0.914333
v 0.335930 0.205064 0.910000
vn -0.992512 -0.122144 0.000000
f 1661/1/428 1662/2/428 1663/3/428 1664/4/428
usemtl white
v 0.340250 0.169963 0.900333
v 0.346079 0.135319 0.904667
v 0.226669 0.213688 0.860667
v 0.214890 0.269443 0.856333
vn 0.345832 0.000138 -0.938296
f 1665/1/429 1666/2/429 1667/3/429 1668/4/429
usemtl white
v 0.214890 0.269443 0.870333
v 0.226669 0.213688 0.874667
v 0.346079 0.135319 0.918667
v 0.340250 0.169963 0.914333
vn -0.345832 -0.000138 0.938296
f 1669/1/430 1670/2/430 1671/3/430 1672/4/430
usemtl silver
v 0.214890 0.269443 0.870333
v 0.226669 0.213688 0.874667
v 0.226669 0.213688 0.860667
v 0.214890 0.269443 0.856333
vn 0.978403 0.206709 -0.000000
f 1673/1/431 1674/2/431 1675/3/431 1676/4/431
usemtl silver
v 0.340250 0.169963 0.900333
v 0.346079 0.135319 0.904667
v 0.346079 0.135319 0.918667
v 0.340250 0.169963 0.914333
vn -0.986136 -0.165937 0.000000
f 1677/1/432 1678/2/432 1679/3/432 1680/4/432
usemtl white
v 0.346079 0.135319 0.904667
v 0.353951 0.100883 0.909000
v 0.249340 0.156788 0.865000
v 0.226669 0.213688 0.860667
vn 0.432336 0.104043 -0.895690
f 1681/1/433 1682/2/433 1683/3/433 1684/4/433
usemtl white
v 0.226669 0.213688 0.874667
v 0.249340 0.156788 0.879000
v 0.353951 0.100883 0.923000
v 0.346079 0.135319 0.918667
vn -0.432336 -0.104043 0.895690
f 1685/1/434 1686/2/434 1687/3/434 1688/4/434
usemtl silver
v 0.226669 0.213688 0.874667
v 0.249340 0.156788 0.879000
v 0.249340 0.156788 0.865000
v 0.226669 0.213688 0.860667
vn 0.928979 0.370132 -0.000000
f 1689/1/435 1690/2/435 1691/3/435 1692/4/435
usemtl silver
v 0.346079 0.135319 0.904667
v 0.353951 0.100883 0.909000
v 0.353951 0.100883 0.923000
v 0.346079 0.135319 0.918667
vn -0.974858 -0.222828 0.000000
f 1693/1/436 1694/2/436 1695/3/436 1696/4/436
usemtl silver
v 0.425734 0.510466 0.827000
v 0.425734 0.489534 0.871000
v 0.425734 0.489534 0.857000
v 0.425734 0.510466 0.813000
vn 1.000000 -0.000000 -0.000000
f 1697/1/437 1698/2/437 1699/3/437 1700/4/437
usemtl silver
v 0.249340 0.156788 0.865000
v 0.353951 0.100883 0.909000
v 0.353951 0.100883 0.923000
v 0.249340 0.156788 0.879000
vn -0.471328 -0.881958 0.000000
f 1701/1/438 1702/2/438 1703/3/438 1704/4/438
usemtl black
v 0.510466 0.425734 0.857000
v 0.527926 0.399647 0.861333
v 0.490491 0.396268 0.817333
v 0.489534 0.425734 0.813000
vn 0.762422 -0.069844 -0.643300
f 1705/1/439 1706/2/439 1707/3/439 1708/4/439
usemtl black
v 0.489534 0.425734 0.827000
v 0.490491 0.396268 0.831333
v 0.527926 0.399647 0.875333
v 0.510466 0.425734 0.871000
vn -0.762422 0.069844 0.643300
f 1709/1/440 1710/2/440 1711/3/440 1712/4/440
usemtl silver
v 0.489534 0.425734 0.827000
v 0.490491 0.396268 0.831333
v 0.490491 0.396268 0.817333
v 0.489534 0.425734 0.813000
vn 0.999473 0.032462 -0.000000
f 1713/1/441 1714/2/441 1715/3/441 1716/4/441
usemtl silver
v 0.510466 0.425734 0.857000
v 0.527926 0.399647 0.861333
v 0.527926 0.399647 0.875333
v 0.510466 0.425734 0.871000
vn -0.831036 -0.556219 0.000000
f 1717/1/442 1718/2/442 1719/3/442 1720/4/442
usemtl black
v 0.527926 0.399647 0.861333
v 0.551922 0.377192 0.865667
v 0.494668 0.366773 0.821667
v 0.490491 0.396268 0.817333
vn 0.612435 -0.029334 -0.789976
f 1721/1/443 1722/2/443 1723/3/443 1724/4/443
usemtl black
v 0.490491 0.396268 0.831333
v 0.494668 0.366773 0.835667
v 0.551922 0.377192 0.879667
v 0.527926 0.399647 0.875333
vn -0.612435 0.029334 0.789976
f 1725/1/444 1726/2/444 1727/3/444 1728/4/444
usemtl silver
v 0.490491 0.396268 0.831333
v 0.494668 0.366773 0.835667
v 0.494668 0.366773 0.821667
v 0.490491 0.396268 0.817333
vn 0.990121 0.140213 -0.000000
f 1729/1/445 1730/2/445 1731/3/445 1732/4/445
usemtl silver
v 0.527926 0.399647 0.861333
v 0.551922 0.377192 0.865667
v 0.551922 0.377192 0.879667
v 0.527926 0.399647 0.875333
vn -0.683263 -0.730173 0.000000
f 1733/1/446 1734/2/446 1735/3/446 1736/4/446
usemtl black
v 0.551922 0.377192 0.865667
v 0.581185 0.359233 0.870000
v 0.502740 0.337523 0.826000
v 0.494668 0.366773 0.821667
vn 0.488062 0.005386 -0.872793
f 1737/1/447 1738/2/447 1739/3/447 1740/4/447
usemtl black
v 0.494668 0.366773 0.835667
v 0.502740 0.337523 0.840000
v 0.581185 0.359233 0.884000
v 0.551922 0.377192 0.879667
vn -0.488062 -0.005386 0.872793
f 1741/1/448 1742/2/448 1743/3/448 1744/4/448
usemtl silver
v 0.494668 0.366773 0.835667
v 0.502740 0.337523 0.840000
v 0.502740 0.337523 0.826000
v 0.494668 0.366773 0.821667
vn 0.963967 0.266020 -0.000000
f 1745/1/449 1746/2/449 1747/3/449 1748/4/449
usemtl silver
v 0.551922 0.377192 0.865667
v 0.581185 0.359233 0.870000
v 0.581185 0.359233 0.884000
v 0.551922 0.377192 0.879667
vn -0.523057 -0.852298 0.000000
f 1749/1/450 1750/2/450 1751/3/450 1752/4/450
usemtl black
v 0.581185 0.359233 0.870000
v 0.614242 0.346101 0.874333
v 0.515591 0.308969 0.830333
v 0.502740 0.337523 0.826000
vn 0.394933 0.038445 -0.917905
f 1753/1/451 1754/2/451 1755/3/451 1756/4/451
usemtl black
v 0.502740 0.337523 0.840000
v 0.515591 0.308969 0.844333
v 0.614242 0.346101 0.888333
v 0.581185 0.359233 0.884000
vn -0.394933 -0.038445 0.917905
f 1757/1/452 1758/2/452 1759/3/452 1760/4/452
usemtl silver
v 0.502740 0.337523 0.840000
v 0.515591 0.308969 0.844333
v 0.515591 0.308969 0.830333
v 0.502740 0.337523 0.826000
vn 0.911902 0.410409 -0.000000
f 1761/1/453 1762/2/453 1763/3/453 1764/4/453
usemtl silver
v 0.581185 0.359233 0.870000
v 0.614242 0.346101 0.874333
v 0.614242 0.346101 0.888333
v 0.581185 0.359233 0.884000
vn -0.369208 -0.929347 0.000000
f 1765/1/454 1766/2/454 1767/3/454 1768/4/454
usemtl black
v 0.614242 0.346101 0.874333
v 0.649645 0.337600 0.878667
v 0.534191 0.281830 0.834667
v 0.515591 0.308969 0.830333
vn 0.324669 0.071926 -0.943089
f 1769/1/455 1770/2/455 1771/3/455 1772/4/455
usemtl black
v 0.515591 0.308969 0.844333
v 0.534191 0.281830 0.848667
v 0.649645 0.337600 0.892667
v 0.614242 0.346101 0.888333
vn -0.324669 -0.071926 0.943089
f 1773/1/456 1774/2/456 1775/3/456 1776/4/456
usemtl silver
v 0.515591 0.308969 0.844333
v 0.534191 0.281830 0.848667
v 0.534191 0.281830 0.834667
v 0.515591 0.308969 0.830333
vn 0.824871 0.565321 -0.000000
f 1777/1/457 1778/2/457 1779/3/457 1780/4/457
usemtl silver
v 0.614242 0.346101 0.874333
v 0.649645 0.337600 0.878667
v 0.649645 0.337600 0.892667
v 0.614242 0.346101 0.888333
vn -0.233461 -0.972366 0.000000
f 1781/1/458 1782/2/458 1783/3/458 1784/4/458
usemtl black
v 0.649645 0.337600 0.878667
v 0.686161 0.333134 0.883000
v 0.559426 0.257166 0.839000
v 0.534191 0.281830 0.834667
vn 0.268521 0.106531 -0.957365
f 1785/1/459 1786/2/459 1787/3/459 1788/4/459
usemtl black
v 0.534191 0.281830 0.848667
v 0.559426 0.257166 0.853000
v 0.686161 0.333134 0.897000
v 0.649645 0.337600 0.892667
vn -0.268521 -0.106531 0.957365
f 1789/1/460 1790/2/460 1791/3/460 1792/4/460
usemtl silver
v 0.534191 0.281830 0.848667
v 0.559426 0.257166 0.853000
v 0.559426 0.257166 0.839000
v 0.534191 0.281830 0.834667
vn 0.698973 0.715148 -0.000000
f 1793/1/461 1794/2/461 1795/3/461 1796/4/461
usemtl silver
v 0.649645 0.337600 0.878667
v 0.686161 0.333134 0.883000
v 0.686161 0.333134 0.897000
v 0.649645 0.337600 0.892667
vn -0.121404 -0.992603 0.000000
f 1797/1/462 1798/2/462 1799/3/462 1800/4/462
usemtl black
v 0.686161 0.333134 0.883000
v 0.722872 0.331887 0.887333
v 0.591901 0.236394 0.843333
v 0.559426 0.257166 0.839000
vn 0.220085 0.142774 -0.964976
f 1801/1/463 1802/2/463 1803/3/463 1804/4/463
usemtl black
v 0.559426 0.257166 0.853000
v 0.591901 0.236394 0.857333
v 0.722872 0.331887 0.901333
v 0.686161 0.333134 0.897000
vn -0.220085 -0.142774 0.964976
f 1805/1/464 1806/2/464 1807/3/464 1808/4/464
usemtl silver
v 0.559426 0.257166 0.853000
v 0.591901 0.236394 0.857333
v 0.591901 0.236394 0.843333
v 0.559426 0.257166 0.839000
vn 0.538832 0.842413 -0.000000
f 1809/1/465 1810/2/465 1811/3/465 1812/4/465
usemtl silver
v 0.686161 0.333134 0.883000
v 0.722872 0.331887 0.887333
v 0.722872 0.331887 0.901333
v 0.686161 0.333134 0.897000
vn -0.033953 -0.999423 0.000000
f 1813/1/466 1814/2/466 1815/3/466 1816/4/466
usemtl black
v 0.722872 0.331887 0.887333
v 0.759214 0.333034 0.891667
v 0.631732 0.221224 0.847667
v 0.591901 0.236394 0.843333
vn 0.174530 0.181827 -0.967718
f 1817/1/467 1818/2/467 1819/3/467 1820/4/467
usemtl black
v 0.591901 0.236394 0.857333
v 0.631732 0.221224 0.861667
v 0.759214 0.333034 0.905667
v 0.722872 0.331887 0.901333
vn -0.174530 -0.181827 0.967718
f 1821/1/468 1822/2/468 1823/3/468 1824/4/468
usemtl silver
v 0.591901 0.236394 0.857333
v 0.631732 0.221224 0.861667
v 0.631732 0.221224 0.847667
v 0.591901 0.236394 0.843333
vn 0.355914 0.934519 -0.000000
f 1825/1/469 1826/2/469 1827/3/469 1828/4/469
usemtl silver
v 0.722872 0.331887 0.887333
v 0.759214 0.333034 0.891667
v 0.759214 0.333034 0.905667
v 0.722872 0.331887 0.901333
vn 0.031554 -0.999502 0.000000
f 1829/1/470 1830/2/470 1831/3/470 1832/4/470
usemtl black
v 0.759214 0.333034 0.891667
v 0.794936 0.335930 0.896000
v 0.678377 0.213490 0.852000
v 0.631732 0.221224 0.847667
vn 0.127188 0.225989 -0.965791
f 1833/1/471 1834/2/471 1835/3/471 1836/4/471
usemtl black
v 0.631732 0.221224 0.861667
v 0.678377 0.213490 0.866000
v 0.794936 0.335930 0.910000
v 0.759214 0.333034 0.905667
vn -0.127188 -0.225989 0.965791
f 1837/1/472 1838/2/472 1839/3/472 1840/4/472
usemtl silver
v 0.631732 0.221224 0.861667
v 0.678377 0.213490 0.866000
v 0.678377 0.213490 0.852000
v 0.631732 0.221224 0.847667
vn 0.163557 0.986534 -0.000000
f 1841/1/473 1842/2/473 1843/3/473 1844/4/473
usemtl silver
v 0.759214 0.333034 0.891667
v 0.794936 0.335930 0.896000
v 0.794936 0.335930 0.910000
v 0.759214 0.333034 0.905667
vn 0.080797 -0.996731 0.000000
f 1845/1/474 1846/2/474 1847/3/474 1848/4/474
usemtl black
v 0.794936 0.335930 0.896000
v 0.830037 0.340250 0.900333
v 0.730557 0.214890 0.856333
v 0.678377 0.213490 0.852000
vn 0.072043 0.278939 -0.957603
f 1849/1/475 1850/2/475 1851/3/475 1852/4/475
usemtl black
v 0.678377 0.213490 0.866000
v 0.730557 0.214890 0.870333
v 0.830037 0.340250 0.914333
v 0.794936 0.335930 0.910000
vn -0.072043 -0.278939 0.957603
f 1853/1/476 1854/2/476 1855/3/476 1856/4/476
usemtl silver
v 0.678377 0.213490 0.866000
v 0.730557 0.214890 0.870333
v 0.730557 0.214890 0.856333
v 0.678377 0.213490 0.852000
vn -0.026813 0.999640 -0.000000
f 1857/1/477 1858/2/477 1859/3/477 1860/4/477
usemtl silver
v 0.794936 0.335930 0.896000
v 0.830037 0.340250 0.900333
v 0.830037 0.340250 0.914333
v 0.794936 0.335930 0.910000
vn 0.122144 -0.992512 0.000000
f 1861/1/478 1862/2/478 1863/3/478 1864/4/478
usemtl black
v 0.830037 0.340250 0.900333
v 0.864681 0.346079 0.904667
v 0.786312 0.226669 0.860667
v 0.730557 0.214890 0.856333
vn -0.000138 0.345832 -0.938296
f 1865/1/479 1866/2/479 1867/3/479 1868/4/479
usemtl black
v 0.730557 0.214890 0.870333
v 0.786312 0.226669 0.874667
v 0.864681 0.346079 0.918667
v 0.830037 0.340250 0.914333
vn 0.000138 -0.345832 0.938296
f 1869/1/480 1870/2/480 1871/3/480 1872/4/480
usemtl silver
v 0.730557 0.214890 0.870333
v 0.786312 0.226669 0.874667
v 0.786312 0.226669 0.860667
v 0.730557 0.214890 0.856333
vn -0.206709 0.978403 -0.000000
f 1873/1/481 1874/2/481 1875/3/481 1876/4/481
usemtl silver
v 0.830037 0.340250 0.900333
v 0.864681 0.346079 0.904667
v 0.864681 0.346079 0.918667
v 0.830037 0.340250 0.914333
vn 0.165937 -0.986136 0.000000
f 1877/1/482 1878/2/482 1879/3/482 1880/4/482
usemtl black
v 0.864681 0.346079 0.904667
v 0.899117 0.353951 0.909000
v 0.843212 0.249340 0.865000
v 0.786312 0.226669 0.860667
vn -0.104043 0.432336 -0.895690
f 1881/1/483 1882/2/483 1883/3/483 1884/4/483
usemtl black
v 0.786312 0.226669 0.874667
v 0.843212 0.249340 0.879000
v 0.899117 0.353951 0.923000
v 0.864681 0.346079 0.918667
vn 0.104043 -0.432336 0.895690
f 1885/1/484 1886/2/484 1887/3/484 1888/4/484
usemtl silver
v 0.786312 0.226669 0.874667
v 0.843212 0.249340 0.879000
v 0.843212 0.249340 0.865000
v 0.786312 0.226669 0.860667
vn -0.370132 0.928979 -0.000000
f 1889/1/485 1890/2/485 1891/3/485 1892/4/485
usemtl silver
v 0.864681 0.346079 0.904667
v 0.899117 0.353951 0.909000
v 0.899117 0.353951 0.923000
v 0.864681 0.346079 0.918667
vn 0.222828 -0.974858 0.000000
f 1893/1/486 1894/2/486 1895/3/486 1896/4/486
usemtl silver
v 0.489534 0.425734 0.827000
v 0.510466 0.425734 0.871000
v 0.510466 0.425734 0.857000
v 0.489534 0.425734 0.813000
vn -0.000000 1.000000 -0.000000
f 1897/1/487 1898/2/487 1899/3/487 1900/4/487
usemtl silver
v 0.843212 0.249340 0.865000
v 0.899117 0.353951 0.909000
v 0.899117 0.353951 0.923000
v 0.843212 0.249340 0.879000
vn 0.881958 -0.471328 0.000000
f 1901/1/488 1902/2/488 1903/3/488 1904/4/488
